<svg width="779" height="105" viewBox="0 0 779 105" fill="none" xmlns="http://www.w3.org/2000/svg">
<path d="M77.9804 4.59959H2V23.7946H77.9804V4.59959Z" stroke="#0679FF" stroke-width="4"/>
<path d="M724.487 58.0969H703.135V102.174H679.476L678.899 4.7399H691.594L724.487 43.5977M724.487 58.0969V43.5977M724.487 58.0969H731.989M724.487 43.5977H731.989M731.989 43.5977L765.459 4.7399H777V102.174H753.34V58.0969H731.989M731.989 43.5977V58.0969M2 41.8578V99.8545H81.0581V81.2956H23.9285V65.0565H57.9754C71.2235 57.1657 75.4531 51.8297 77.0186 40.6979L2 41.8578ZM100.101 5.31987V80.1357C104.116 92.4895 108.286 96.9956 117.99 102.174H156.077V81.2956L123.184 78.9757V5.31987H100.101ZM171.657 101.014V41.2778H246.676L227.056 65.0565H195.317V78.3958H254.755V102.174L171.657 101.014ZM171.657 26.7787V4.15993H257.063V26.7787H171.657ZM352.279 4.15993L307.845 3C288.232 10.2989 274.952 26.1987 271.49 38.378C268.028 50.5573 267.45 54.6171 271.49 67.9563C275.529 81.2956 287.266 94.0996 306.691 102.174H352.279V78.3958L307.845 77.2358C288.201 57.1085 288.624 46.2022 307.845 27.3586L352.279 26.7787V4.15993ZM363.821 4.15993H397.29V26.7787H363.821V4.15993ZM410.563 101.594H431.914V28.5186L569.833 27.3586C569.699 13.9883 564.772 8.97854 549.059 3.57997H431.914C417.233 8.48005 412.418 14.0419 409.409 28.5186L410.563 101.594ZM473.463 41.2778H495.969V101.594H473.463V41.2778ZM507.51 60.4168V41.2778H572.719C571.055 56.2455 561.363 61.2223 541.557 65.6365L572.719 101.594H545.019L507.51 60.4168ZM590.031 3.57997H613.69V77.8158L645.429 78.3958V4.7399H667.934L669.089 78.3958L645.429 101.594H613.69L590.031 78.3958V3.57997Z" stroke="#0679FF" stroke-width="4"/>
</svg>
