<?xml version="1.0" encoding="UTF-8"?>
<svg xmlns="http://www.w3.org/2000/svg"
     xmlns:xlink="http://www.w3.org/1999/xlink"
     viewBox="-78 -78 7346 936"
     width="7346" height="936">
  <defs>
    <!-- Icon gradients -->
    <linearGradient id="icon_lg3987">
      <stop style="stop-color:#1382ef;stop-opacity:1;" offset="0" />
      <stop style="stop-color:#0056c0;stop-opacity:1;" offset="1" />
    </linearGradient>
    <linearGradient xlink:href="#icon_lg3987" id="icon_lg3996"
      x1="11.848" y1="179.9725" x2="263.60077" y2="179.9725"
      gradientUnits="userSpaceOnUse" gradientTransform="translate(8.6924921,11.686933)" />
    <linearGradient xlink:href="#icon_lg3987" id="icon_lg4010"
      x1="11.348" y1="179.9725" x2="264.10077" y2="179.9725"
      gradientUnits="userSpaceOnUse" gradientTransform="translate(8.6924921,11.686933)" />
    <linearGradient xlink:href="#icon_lg3987" id="icon_lg4012"
      gradientUnits="userSpaceOnUse"
      x1="254.73778" y1="334.82437" x2="9.1209993" y2="-4.0966849"
      gradientTransform="translate(8.6924921,11.686933)" />
    <linearGradient xlink:href="#icon_lg3987" id="icon_lg4014"
      gradientUnits="userSpaceOnUse"
      x1="254.73778" y1="334.82437" x2="9.1209993" y2="-4.0966849"
      gradientTransform="translate(8.6924921,11.686933)" />
    <radialGradient xlink:href="#icon_lg3987" id="icon_rg3786"
      cx="523.18433" cy="732.08508" fx="523.18433" fy="732.08508" r="146.04732"
      gradientTransform="matrix(-0.89061708,0.86297075,-0.78291311,-0.80799475,1427.0215,361.93374)"
      gradientUnits="userSpaceOnUse" />
    <radialGradient xlink:href="#icon_lg3987" id="icon_rg3796"
      cx="529.57996" cy="728.15845" fx="529.57996" fy="728.15845" r="146.04732"
      gradientTransform="matrix(-0.87083717,0.55292729,-0.71897156,-1.1320773,466.94349,499.54907)"
      gradientUnits="userSpaceOnUse" />
    <radialGradient xlink:href="#icon_lg3987" id="icon_rg3800"
      cx="505.65533" cy="726.3916" fx="505.65533" fy="726.3916" r="146.04732"
      gradientTransform="matrix(-0.94821917,1.3404019,-1.4302101,-1.0037148,1646.3221,-657.08623)"
      gradientUnits="userSpaceOnUse" />
    <!-- Text gradient -->
    <linearGradient id="text_blueGradient" x1="0" y1="0" x2="5523" y2="0" gradientUnits="userSpaceOnUse">
      <stop offset="0%" stop-color="#044bbe"/>
      <stop offset="50%" stop-color="#44a2fe"/>
      <stop offset="100%" stop-color="#044bbe"/>
    </linearGradient>
  </defs>

  <!-- Text (left, translated and scaled to match icon height) -->
  <g transform="translate(0,-55.714) scale(1.11429)">
    <path d="M597 300H30L10 315V735L30 750H642L663 735V580L643 556H213V500H385Q435 497 471.5 480.5Q508 464 531.5 442.5Q555 421 576.0 379.0Q597 337 597 300ZM45 335H551Q544 366 521.0 395.5Q498 425 466.0 443.5Q434 462 381 465H178V591H628V715H45ZM30 245 10 230V65L30 50H643L663 65V230L643 245ZM628 210V85H45V210ZM1166 580V726L1144 750H891Q867 750 836.5 734.5Q806 719 778.5 693.5Q751 668 732.0 634.5Q713 601 713 565V74L735 50H892L914 74V543L929 556H1144ZM1131 591H923Q910 590 895.0 577.5Q880 565 879 542V85H748V553Q748 576 759.0 601.5Q770 627 790.5 651.5Q811 676 841.5 695.0Q872 714 911 715H1131ZM1803 300H1236L1216 315V735L1236 750H1848L1869 735V580L1849 556H1419V500H1591Q1641 497 1677.5 480.5Q1714 464 1737.5 442.5Q1761 421 1782.0 379.0Q1803 337 1803 300ZM1251 335H1757Q1750 366 1727.0 395.5Q1704 425 1672.0 443.5Q1640 462 1587 465H1384V591H1834V715H1251ZM1236 245 1216 230V65L1236 50H1849L1869 65V230L1849 245ZM1834 210V85H1251V210ZM2539 244H2262Q2231 244 2208.5 254.5Q2186 265 2164.5 287.5Q2143 310 2132.0 338.0Q2121 366 2121 403Q2121 434 2132.0 462.0Q2143 490 2164.5 512.5Q2186 535 2208.5 545.5Q2231 556 2262 556H2539V735L2518 750H2253Q2204 750 2137.0 724.0Q2070 698 2022.5 650.5Q1975 603 1947.0 539.0Q1919 475 1919 403Q1919 325 1947.0 261.0Q1975 197 2022.5 149.5Q2070 102 2137.0 76.0Q2204 50 2253 50H2518L2539 65ZM1955 403Q1955 477 1988 543Q2004 571 2025.5 599.0Q2047 627 2078.5 651.5Q2110 676 2154.5 694.0Q2199 712 2258 715H2503V591H2264Q2200 585 2163.0 557.0Q2126 529 2104 487Q2086 448 2086 403Q2086 352 2104 313Q2126 271 2163.0 243.0Q2200 215 2264 209H2503V85H2258Q2199 88 2154.5 106.0Q2110 124 2078.5 148.5Q2047 173 2025.5 201.0Q2004 229 1988 257Q1955 323 1955 403ZM4370 554H4524L4537 543V74L4559 50H4716L4738 74V565Q4738 601 4719.0 634.5Q4700 668 4673.0 693.5Q4646 719 4615.5 734.5Q4585 750 4561 750H4335Q4311 750 4280.5 734.5Q4250 719 4222.5 693.5Q4195 668 4176.0 634.5Q4157 601 4156 565V74L4178 50H4335L4357 74V543ZM4541 715Q4583 714 4613.5 696.5Q4644 679 4664.5 654.5Q4685 630 4694.0 603.0Q4703 576 4703 553V85H4572V542Q4572 565 4557.5 577.0Q4543 589 4529 589H4367Q4353 589 4337.5 577.0Q4322 565 4322 543V85H4191V553Q4192 576 4202.0 602.5Q4212 629 4233.0 653.5Q4254 678 4283.5 696.0Q4313 714 4355 715ZM5477 715V85H5420L5190 347V422H5346V715ZM5333 750 5311 726V457H5177L5155 433V334L5409 50H5490L5512 74V726L5490 750ZM4954 715V422H5110V347L4880 85H4823V715ZM4810 750 4788 726V74L4810 50H4891L5145 334V433L5123 457H4989V726L4967 750Z M 2611.0 50 L 2589.0 74 L 2589.0 221 L 2611.0 245 L 2842.0 245 L 2864.0 221 L 2864.0 74 L 2842.0 50 L 2611.0 50 z M 3084.0 50 C 3066.66667 50 3048.16667 55.166667 3028.5 65.5 C 3008.83333 75.833333 2989.83333 89.5 2971.5 106.5 C 2953.16667 123.5 2937.66667 143.16667 2925.0 165.5 C 2912.33333 187.83333 2906.0 211 2906.0 235 L 2906.0 726 L 2928.0 750 L 3085.0 750 L 3108.0 726 L 3108.0 261 C 3108.0 250.33333 3113.66667 245 3125.0 245 L 3314.0 245 L 3349.0 245 L 4071.0 245 C 4071.6667 219.66667 4066.8333 195.66667 4056.5 173 C 4046.1667 150.33333 4031.1667 130.16667 4011.5 112.5 C 3991.8333 94.833333 3968.8333 80 3942.5 68 C 3916.1667 56 3888.0 50 3858.0 50 L 3349.0 50 L 3314.0 50 L 3084.0 50 z M 2624.0 85 L 2829.0 85 L 2829.0 210 L 2624.0 210 L 2624.0 85 z M 3104.0 85 L 3349.0 85 L 3851.0 85 C 3884.3333 87 3910.5 92.833333 3929.5 102.5 C 3948.5 112.16667 3965.8333 124.5 3981.5 139.5 C 3997.1667 154.5 4008.3333 167.83333 4015.0 179.5 C 4021.6667 191.16667 4025.0 201.33333 4025.0 210 L 3349.0 210 L 3116.0 210 C 3110.0 210 3104.5 211.66667 3099.5 215 C 3094.5 218.33333 3090.0 222.33333 3086.0 227 C 3082.0 231.66667 3078.66667 236.83333 3076.0 242.5 C 3073.33333 248.16667 3072.0 253.33333 3072.0 258 L 3072.0 715 L 2941.0 715 L 2941.0 247 C 2941.0 232.33333 2943.5 216.83333 2948.5 200.5 C 2953.5 184.16667 2964.0 166.83333 2980.0 148.5 C 2996.0 130.16667 3013.66667 115 3033.0 103 C 3052.33333 91 3076.0 85 3104.0 85 z M 3346.0 303 L 3324.0 327 L 3324.0 726 L 3346.0 750 L 3504.0 750 L 3526.0 726 L 3526.0 327 L 3504.0 303 L 3346.0 303 z M 3584.0 303 L 3562.0 327 L 3562.0 458 L 3846.0 750 L 4071.0 750 L 4071.0 711 L 3854.0 500 C 3887.3333 496.66667 3916.3333 489.66667 3941.0 479 C 3965.6667 468.33333 3986.0 455.83333 4002.0 441.5 C 4018.0 427.16667 4030.6667 411.83333 4040.0 395.5 C 4049.3333 379.16667 4056.3333 364.16667 4061.0 350.5 C 4065.6667 336.83333 4068.5 325.5 4069.5 316.5 L 4071.0 303 L 3584.0 303 z M 3359.0 338 L 3491.0 338 L 3491.0 715 L 3359.0 715 L 3359.0 338 z M 3597.0 338 L 4025.0 338 C 4020.3333 359.33333 4009.6667 379.33333 3993.0 398 C 3979.0 414 3960.5 428.5 3937.5 441.5 C 3914.5 454.5 3884.0 462.33333 3846.0 465 L 3771.0 465 L 4024.0 715 L 3864.0 715 L 3597.0 447 L 3597.0 338 z" fill="url(#text_blueGradient)"/>
  </g>

  <!-- Icon (right, scaled 1.2x from center, translated after text) -->
  <g transform="translate(6332,0)">
  <g transform="translate(390,390) scale(1.2) translate(-390,-390)">
  <ellipse
    style="fill:none;fill-opacity:0;stroke:url(#icon_rg3786);stroke-width:37.5001;stroke-miterlimit:4;stroke-dasharray:none;stroke-opacity:1"
    cx="389.90555" cy="389.90558" rx="366.15549" ry="173.5993" />
  <ellipse
    transform="matrix(-0.50141536,-0.8652067,0.86684024,-0.498586,0,0)"
    style="fill:none;fill-opacity:0;stroke:url(#icon_rg3796);stroke-width:37.5002;stroke-miterlimit:4;stroke-dasharray:none;stroke-opacity:1"
    cx="-532.39014" cy="141.84494" rx="365.12195" ry="174.09163" />
  <ellipse
    style="fill:none;fill-opacity:0;stroke:url(#icon_rg3800);stroke-width:37.5002;stroke-miterlimit:4;stroke-dasharray:none;stroke-opacity:1"
    transform="matrix(-0.50141531,0.86520673,-0.86684024,-0.498586,0,0)"
    cx="143.58517" cy="-532.85626" rx="365.12195" ry="174.09163" />
  <g transform="matrix(0.69025084,0,0,0.68452521,303.02479,261.95237)"
     style="fill:url(#icon_lg4010);fill-opacity:1;stroke:url(#icon_lg3996)">
    <path d="m 217.021,167.042 c 18.631,-9.483 30.288,-26.184 27.565,-54.007 C 240.919,75.012 208.06,62.262 166.58,58.631 L 166.572,5.89 h -32.139 l -0.009,51.354 c -8.456,0 -17.076,0.166 -25.657,0.338 L 108.76,5.897 76.65,5.894 76.644,58.622 c -6.959,0.142 -13.793,0.277 -20.466,0.277 v -0.156 l -44.33,-0.018 0.006,34.282 c 0,0 23.734,-0.446 23.343,-0.013 13.013,0.009 17.262,7.559 18.484,14.076 l 0.01,60.083 v 84.397 c -0.573,4.09 -2.984,10.625 -12.083,10.637 0.414,0.364 -23.379,-0.004 -23.379,-0.004 l -6.375,38.335 h 41.817 c 7.792,0.009 15.448,0.13 22.959,0.19 l 0.028,53.338 32.102,0.009 -0.009,-52.779 c 8.832,0.18 17.357,0.258 25.684,0.247 l -0.009,52.532 h 32.138 l 0.018,-53.249 c 54.022,-3.1 91.842,-16.697 96.544,-67.385 3.79,-40.809 -15.434,-59.025 -46.105,-66.379 z M 109.535,95.321 c 18.126,0 75.132,-5.767 75.14,32.064 -0.008,36.269 -56.996,32.032 -75.14,32.032 V 95.321 Z m -0.014,167.126 0.014,-70.672 c 21.778,-0.006 90.085,-6.261 90.094,35.32 0.009,39.876 -68.316,35.336 -90.108,35.352 z"
      style="fill:url(#icon_lg4012);fill-opacity:1;stroke:url(#icon_lg4014)" />
  </g>
  </g>
  </g>
</svg>
