<svg width="88" height="50" viewBox="0 0 88 50" fill="none" xmlns="http://www.w3.org/2000/svg">
<path d="M65.9337 16.1299L73.1403 3.67491C73.767 2.46074 73.297 0.972408 72.122 0.345742C70.9862 -0.241758 69.5762 0.110743 68.8712 1.20741L61.5078 13.8974C50.3062 9.15824 37.6945 9.15824 26.4928 13.8974L19.1295 1.20741C18.3853 0.0715761 16.8578 -0.280925 15.722 0.424075C14.6253 1.12908 14.2728 2.53908 14.8603 3.67491L22.067 16.1299C9.92533 23.0624 2.01366 35.5566 0.916992 49.4999H87.0837C85.987 35.5566 78.0753 23.0624 65.9337 16.1299ZM24.417 38.7291C21.7145 38.7291 19.5212 36.5357 19.5212 33.8332C19.5212 31.1307 21.7145 28.9374 24.417 28.9374C27.1195 28.9374 29.3128 31.1307 29.3128 33.8332C29.3128 36.5357 27.1195 38.7291 24.417 38.7291ZM63.5837 38.7291C60.8812 38.7291 58.6878 36.5357 58.6878 33.8332C58.6878 31.1307 60.8812 28.9374 63.5837 28.9374C66.2862 28.9374 68.4795 31.1307 68.4795 33.8332C68.4795 36.5357 66.2862 38.7291 63.5837 38.7291Z" fill="white"/>
</svg>
