<svg width="14" height="13" viewBox="0 0 14 13" fill="none" xmlns="http://www.w3.org/2000/svg">
<path fill-rule="evenodd" clip-rule="evenodd" d="M0.400391 6.6649C0.400391 9.60908 2.26266 12.1073 4.84559 12.9886C5.17079 13.05 5.28931 12.8442 5.28931 12.6674C5.28931 12.5091 5.28372 12.0901 5.28053 11.5341C3.47252 11.9367 3.09105 10.6405 3.09105 10.6405C2.79537 9.87052 2.3692 9.66554 2.3692 9.66554C1.77904 9.2519 2.4139 9.26049 2.4139 9.26049C3.06631 9.30754 3.40948 9.94744 3.40948 9.94744C3.98967 10.9658 4.93098 10.6716 5.30128 10.501C5.36033 10.0702 5.52833 9.77683 5.71387 9.6099C4.27058 9.44174 2.75307 8.87017 2.75307 6.31631C2.75307 5.58845 3.00646 4.99356 3.42225 4.52755C3.35561 4.35898 3.13255 3.68145 3.48609 2.76415C3.48609 2.76415 4.03196 2.58454 5.27335 3.44701C5.79208 3.29931 6.34793 3.22526 6.90059 3.2228C7.45285 3.22526 8.0087 3.29931 8.52823 3.44701C9.76882 2.58454 10.3139 2.76415 10.3139 2.76415C10.6682 3.68145 10.4452 4.35898 10.3785 4.52755C10.7951 4.99356 11.0465 5.58845 11.0465 6.31631C11.0465 8.87631 9.52701 9.43969 8.07893 9.60499C8.31236 9.81079 8.51985 10.2175 8.51985 10.839C8.51985 11.7301 8.51227 12.4489 8.51227 12.6674C8.51227 12.8458 8.62919 13.0528 8.95919 12.9878C11.5397 12.1048 13.4004 9.60867 13.4004 6.6649C13.4004 2.98386 10.4899 0 6.89979 0C3.31092 0 0.400391 2.98386 0.400391 6.6649Z" fill="white"/>
</svg>
