<svg width="61" height="82" viewBox="0 0 61 82" fill="none" xmlns="http://www.w3.org/2000/svg">
<path d="M30.5554 75C34.2028 75.0551 36.459 74.4284 39.5554 72.5C40.3365 70.5474 41.069 69.546 41.5554 67.5C42.3233 64.2706 42.0547 59.75 42.0547 58.75C42.0547 57.75 43.5554 57.5 43.5554 57.5C43.5554 57.5 42.8181 54.4141 46.0554 53.5C49.2928 52.5859 52.8473 56.9793 52.5554 57.5V58.75C52.5554 58.75 54.2263 58.9071 55.0554 59.5C56.5622 60.5775 55.7027 62.3555 56.5554 64C57.4543 65.7335 59.4706 66.0492 59.5554 68C59.6091 69.2338 59.2196 69.9588 58.5554 71C57.2396 73.0627 55.0536 72.5882 53.0554 74C50.1235 76.0715 50.0702 79.7698 46.5554 80.5C44.6341 80.8992 43.2365 81.0124 41.5554 80C40.6092 79.4302 39.5554 78 39.5554 78C39.5554 78 34.1179 76.5694 30.5554 76.5C27.2137 76.4349 22.0554 77.5 22.0554 77.5C22.0554 77.5 21.6193 78.8433 20.5554 79.5C18.8939 80.5257 18.4824 80.3109 16.5547 80C13.6185 79.5264 10.9916 77.4736 8.05542 77C6.12772 76.6891 4.69096 78.0667 3.05542 77C1.87602 76.2308 1.33672 75.3797 1.05542 74C0.733754 72.4223 1.91101 71.6037 2.05542 70C2.23143 68.0455 0.583626 66.7048 1.55542 65L1.5672 64.9793C2.17602 63.9112 2.29306 63.7058 4.05542 63C5.8291 62.2896 6.81294 61.6342 8.55542 59.5C8.55542 59.5 7.55542 60 7.05542 59C6.55542 58 6.54709 53.5149 7.05542 50C8.52939 44.0253 10.1906 40.7447 14.5554 35L18.5554 28.5C19.349 26.3516 19.1743 24.2323 18.5554 20C18.5554 20 17.2367 13.6759 18.5554 10C19.822 6.46945 21.2593 4.29013 24.5554 2.5C26.6779 1.3473 28.1402 1 30.5554 1C32.9707 1 34.4582 1.30204 36.5554 2.5C39.7093 4.3015 40.8018 6.59113 42.0554 10C43.405 13.6698 42.5554 20 42.5554 20C42.0165 24.0422 42.328 25.9873 44.5554 28.5L49.5554 35C53.253 40.1744 54.6737 43.4848 56.0554 50L55.5547 59.5L54.0547 59C54.214 55.7594 52.3056 53.7249 49.5554 52C49.5557 46.4398 49.509 43.3617 46.5554 40.5C47.6506 44.961 47.5324 47.3278 47.0554 51.5C45.6859 46.3968 44.7353 43.6066 42.0554 39C39.7174 34.6661 38.7769 32.1461 37.5554 27.5C37.5554 27.5 31.0547 32 28.0554 32C25.0562 32 21.0554 28.5 21.0554 28.5C21.0554 28.5 21.5562 32 20.5554 35C19.5547 38 14.3934 46.4538 13.5547 54C12.6071 49.5755 12.4739 46.4421 13.0554 41.5C11.1342 45.0323 10.3056 47.2138 10.5554 52.5C13.3819 57.3559 15.8323 59.1613 20.5554 62C22.5262 63.9907 22.9521 64.97 22.5554 66.5C22.0139 68.3455 21.3451 68.8745 19.1463 68.5L22.0554 72.5C22.0554 72.5 27.0958 74.9477 30.5554 75Z" fill="black"/>
<path d="M39.5554 72.5C36.459 74.4284 34.2028 75.0551 30.5554 75C27.0958 74.9477 22.0554 72.5 22.0554 72.5M39.5554 72.5C39.5554 74.6479 39.5554 78 39.5554 78M39.5554 72.5C40.3365 70.5474 41.069 69.546 41.5554 67.5C42.3233 64.2706 42.0547 59.75 42.0547 58.75C42.0547 57.75 43.5554 57.5 43.5554 57.5M22.0554 72.5V77.5M22.0554 72.5L19.1463 68.5M22.0554 77.5C22.0554 77.5 27.2137 76.4349 30.5554 76.5C34.1179 76.5694 39.5554 78 39.5554 78M22.0554 77.5C22.0554 77.5 21.6193 78.8433 20.5554 79.5C18.8939 80.5257 18.4824 80.3109 16.5547 80C13.6185 79.5264 10.9916 77.4736 8.05542 77C6.12772 76.6891 4.69096 78.0667 3.05542 77C1.87602 76.2308 1.33672 75.3797 1.05542 74C0.733754 72.4223 1.91101 71.6037 2.05542 70C2.23143 68.0455 0.583626 66.7048 1.55542 65C2.17459 63.9138 2.28175 63.7104 4.05542 63C5.8291 62.2896 6.81294 61.6342 8.55542 59.5M39.5554 78C39.5554 78 40.6092 79.4302 41.5554 80C43.2365 81.0124 44.6341 80.8992 46.5554 80.5C50.0702 79.7698 50.1235 76.0715 53.0554 74C55.0536 72.5882 57.2396 73.0627 58.5554 71C59.2196 69.9588 59.6091 69.2338 59.5554 68C59.4706 66.0492 57.4542 65.7334 56.5554 64C55.7027 62.3555 56.5622 60.5775 55.0554 59.5C54.2263 58.9071 52.5554 58.75 52.5554 58.75M43.5554 57.5C43.5554 57.5 42.8181 54.4141 46.0554 53.5C49.2928 52.5859 52.8473 56.9793 52.5554 57.5V58.75M43.5554 57.5C43.5554 57.5 45.5816 61.7612 48.0554 62C49.9696 62.1848 52.5554 60 52.5554 60V58.75M8.55542 59.5C8.55542 59.5 10.0071 58.4128 11.0547 58.5C11.9249 58.5724 13.0547 59.5 13.0547 59.5L18.0554 67L19.1463 68.5M8.55542 59.5C8.55542 59.5 7.55542 60 7.05542 59C6.55542 58 6.54709 53.5149 7.05542 50C8.52939 44.0253 10.1906 40.7447 14.5554 35L18.5554 28.5C19.349 26.3516 19.1743 24.2323 18.5554 20C18.5554 20 17.2367 13.6759 18.5554 10C19.822 6.46945 21.2593 4.29013 24.5554 2.5C26.6779 1.3473 28.1402 1 30.5554 1C32.9707 1 34.4582 1.30204 36.5554 2.5C39.7093 4.3015 40.8018 6.59113 42.0554 10C43.405 13.6698 42.5554 20 42.5554 20C42.0165 24.0422 42.328 25.9873 44.5554 28.5L49.5554 35C53.253 40.1744 54.6737 43.4848 56.0554 50L55.5547 59.5L54.0547 59C54.214 55.7594 52.3056 53.7249 49.5554 52C49.5557 46.4398 49.509 43.3617 46.5554 40.5C47.6506 44.961 47.5324 47.3278 47.0554 51.5C45.6859 46.3968 44.7353 43.6066 42.0554 39C39.7174 34.6661 38.7769 32.1461 37.5554 27.5C37.5554 27.5 31.0547 32 28.0554 32C25.0562 32 21.0554 28.5 21.0554 28.5C21.0554 28.5 21.5562 32 20.5554 35C19.5547 38 14.3934 46.4538 13.5547 54C12.6071 49.5755 12.4739 46.4421 13.0554 41.5C11.1342 45.0323 10.3056 47.2138 10.5554 52.5C13.3819 57.3559 15.8323 59.1613 20.5554 62C22.5262 63.9907 22.9521 64.97 22.5554 66.5C22.0139 68.3455 21.3451 68.8745 19.1463 68.5" stroke="white" stroke-width="1.5" stroke-linejoin="round"/>
<path d="M37.0547 25.5C37.6813 25.1094 37.8393 24.3906 37.0546 24.0001C33.8934 22.6749 32.084 21.9611 29.5546 20.0001C28.7886 19.6473 28.3281 19.6675 27.5546 20.0001C24.9486 21.8714 23.5551 22.6178 21.0546 24.0001C20.6763 24.6413 20.6065 24.977 21.0546 25.5001C23.7811 26.8581 25.0022 27.9342 27.0546 30.0001C28.0252 30.3292 28.5897 30.3169 29.5546 30.0001C32.5018 27.7972 34.1433 26.7007 37.0547 25.5Z" fill="white" stroke="white" stroke-width="0.5"/>
<path d="M35.0547 24.5L29.5547 27.5C28.5734 27.9617 28.0335 28.0069 27.0547 27.5L23.0547 24.5" stroke="black" stroke-linecap="round" stroke-linejoin="round"/>
<path d="M11.5 60.5001C13 60.5 14 64.5 15 66C15.6336 66.9504 18.7169 70.0102 20.0544 73C20.8278 74.7289 20.604 76.7673 20.0544 77.5001C18.5544 79.5001 16 78 16 78C13.1635 76.4019 10.5 75.5 9 75C7.5 74.5 5.77004 76.1547 4.55436 75.5001C3.69475 75.0373 3.28511 74.4488 3.05436 73.5001C2.70289 72.0552 4.37072 71.4758 4.55436 70.0001C4.77667 68.2137 2.68765 67.078 3.55436 65.5001C4.4462 63.8765 6.45869 64.5275 8 63.5C9.14882 62.7341 10 60.5003 11.5 60.5001Z" fill="white"/>
<path d="M44.0544 67C43.4836 69.7368 43.9172 68.0589 42.5544 70.5C41.9994 71.4941 41.0242 73.8617 41 75C40.9648 76.6565 41.016 77.8847 42.5544 78.5C44.0047 79.0802 45.1435 79.6706 46.5544 79.0001C47.9318 78.3455 48.032 77.1317 49.0544 76.0001C50.3502 74.5658 51.0144 73.6684 52.5544 72.5001C54.156 71.2851 56.1337 71.7873 57.0544 70.0001C57.5103 69.115 57.7668 68.4729 57.5544 67.5001C57.229 66.0102 56.2723 66.3457 55.5547 65C54.905 63.7817 54.9873 62.5179 54.0544 61.5001C53.4643 60.8564 52.9068 60.6896 52.0544 60.5001C50.4825 60.1508 49.6262 61.8494 48.0544 61.5001C47.2019 61.3107 46.9068 60.6896 46.0544 60.5001C45.2919 60.3307 45.7465 60.7703 45 61C42.5738 61.7465 44.5726 64.5151 44.0544 67Z" fill="white"/>
<path d="M15 66L15.416 65.7227L15 66ZM8 63.5L7.72265 63.084L8 63.5ZM3.55436 65.5001L3.11612 65.2594H3.11612L3.55436 65.5001ZM4.55436 70.0001L5.05053 70.0619L4.55436 70.0001ZM3.05436 73.5001L3.54019 73.382L3.05436 73.5001ZM4.55436 75.5001L4.79141 75.0599L4.55436 75.5001ZM16 78L16.2532 77.5688L16.2454 77.5644L16 78ZM20.0544 77.5001L20.4544 77.8001L20.0544 77.5001ZM42.5544 70.5L42.1178 70.2563V70.2563L42.5544 70.5ZM44.0544 67L44.5438 67.1021L44.0544 67ZM45 61L45.147 61.4779L45 61ZM46.0544 60.5001L46.1628 60.012L46.1628 60.012L46.0544 60.5001ZM48.0544 61.5001L47.9459 61.9882H47.9459L48.0544 61.5001ZM52.0544 60.5001L52.1628 60.012L52.1628 60.012L52.0544 60.5001ZM54.0544 61.5001L54.4229 61.1623V61.1623L54.0544 61.5001ZM55.5547 65L55.1135 65.2353V65.2353L55.5547 65ZM57.5544 67.5001L57.0659 67.6068L57.5544 67.5001ZM57.0544 70.0001L56.6099 69.7712V69.7712L57.0544 70.0001ZM52.5544 72.5001L52.2522 72.1018L52.5544 72.5001ZM49.0544 76.0001L49.4254 76.3353L49.0544 76.0001ZM46.5544 79.0001L46.769 79.4517L46.5544 79.0001ZM42.5544 78.5L42.7401 78.0358L42.5544 78.5ZM41 75L40.5001 74.9894V74.9894L41 75ZM15.416 65.7227C15.1933 65.3886 14.9589 64.8953 14.6998 64.3065C14.4482 63.7346 14.1744 63.0752 13.8894 62.4735C13.6046 61.8722 13.2874 61.2813 12.9287 60.8352C12.5813 60.4031 12.1089 60.0001 11.5 60.0001L11.5 61.0001C11.6411 61.0001 11.8562 61.0971 12.1494 61.4618C12.4313 61.8125 12.7079 62.3153 12.9856 62.9016C13.2631 63.4873 13.5205 64.1092 13.7845 64.7092C14.0411 65.2922 14.3067 65.8614 14.584 66.2774L15.416 65.7227ZM11.5 60.0001C10.4933 60.0002 9.76992 60.7484 9.23383 61.3933C9.09273 61.563 8.95523 61.738 8.82373 61.9052C8.69063 62.0745 8.5637 62.2357 8.43679 62.3877C8.17897 62.6965 7.94781 62.9339 7.72265 63.084L8.27735 63.916C8.6266 63.6832 8.93265 63.3541 9.2044 63.0286C9.34228 62.8635 9.47823 62.6907 9.6098 62.5234C9.74297 62.354 9.87193 62.19 10.0028 62.0326C10.5545 61.3689 11.0067 61.0002 11.5 61.0001L11.5 60.0001ZM7.72265 63.084C7.05584 63.5285 6.30599 63.6044 5.43139 63.7871C4.59707 63.9614 3.67424 64.2434 3.11612 65.2594L3.9926 65.7409C4.32632 65.1333 4.85565 64.929 5.63587 64.766C6.3758 64.6114 7.40285 64.499 8.27735 63.916L7.72265 63.084ZM3.11612 65.2594C2.54202 66.3046 2.98982 67.2109 3.37425 67.9122C3.79088 68.6723 4.14493 69.2413 4.05819 69.9384L5.05053 70.0619C5.18609 68.9725 4.60679 68.0804 4.25116 67.4316C3.86334 66.724 3.69999 66.2736 3.9926 65.7409L3.11612 65.2594ZM4.05819 69.9384C3.98724 70.5085 3.63943 70.9004 3.20878 71.455C2.80501 71.975 2.33328 72.6512 2.56853 73.6183L3.54019 73.382C3.42397 72.9041 3.61042 72.5682 3.99861 72.0683C4.35992 71.6031 4.93784 70.9675 5.05053 70.0619L4.05819 69.9384ZM2.56853 73.6183C2.69429 74.1354 2.87664 74.5867 3.16618 74.9791C3.45729 75.3737 3.83652 75.6815 4.31731 75.9404L4.79141 75.0599C4.41259 74.8559 4.15719 74.638 3.97089 74.3855C3.78302 74.1308 3.64518 73.8136 3.54019 73.382L2.56853 73.6183ZM4.31731 75.9404C4.75103 76.1739 5.20887 76.1868 5.6275 76.1219C6.03717 76.0584 6.45809 75.9117 6.83528 75.7801C7.23013 75.6424 7.58822 75.5168 7.93695 75.4505C8.27965 75.3853 8.57574 75.3856 8.84189 75.4743L9.15811 74.5257C8.67426 74.3644 8.19161 74.3841 7.75007 74.4681C7.31457 74.5509 6.88294 74.7044 6.50583 74.836C6.11108 74.9737 5.77782 75.0867 5.47434 75.1337C5.17981 75.1794 4.96553 75.1537 4.79141 75.0599L4.31731 75.9404ZM8.84189 75.4743C10.3367 75.9726 12.962 76.8623 15.7546 78.4356L16.2454 77.5644C13.3649 75.9415 10.6633 75.0274 9.15811 74.5257L8.84189 75.4743ZM16 78C15.7468 78.4312 15.747 78.4313 15.7472 78.4314C15.7473 78.4314 15.7475 78.4315 15.7476 78.4316C15.7479 78.4318 15.7483 78.432 15.7487 78.4323C15.7495 78.4327 15.7504 78.4333 15.7515 78.4339C15.7537 78.4352 15.7566 78.4368 15.76 78.4388C15.7669 78.4427 15.7763 78.448 15.788 78.4544C15.8113 78.4673 15.8442 78.4849 15.8855 78.506C15.9682 78.5481 16.0856 78.6045 16.2305 78.6648C16.5184 78.7846 16.925 78.9241 17.3899 78.9944C18.3273 79.1363 19.5568 78.9969 20.4544 77.8001L19.6544 77.2001C19.0519 78.0034 18.2543 78.1139 17.5395 78.0057C17.1783 77.951 16.8525 77.8405 16.6146 77.7415C16.4966 77.6924 16.4028 77.6472 16.3398 77.6151C16.3084 77.5991 16.2849 77.5865 16.2701 77.5783C16.2628 77.5743 16.2576 77.5714 16.2547 77.5697C16.2533 77.5689 16.2524 77.5684 16.2522 77.5683C16.2521 77.5682 16.2521 77.5682 16.2522 77.5683C16.2523 77.5683 16.2525 77.5684 16.2526 77.5685C16.2527 77.5686 16.2528 77.5686 16.2529 77.5687C16.253 77.5688 16.2532 77.5689 16 78ZM42.9909 70.7437C43.3251 70.1453 43.5447 69.8071 43.6932 69.5947C43.7682 69.4874 43.826 69.4107 43.8789 69.3394C43.9294 69.2713 43.9842 69.1967 44.0329 69.1135C44.1398 68.9307 44.195 68.7454 44.2582 68.4699C44.3205 68.1981 44.4033 67.7761 44.5438 67.1021L43.5649 66.8979C43.4201 67.5923 43.343 67.987 43.2835 68.2465C43.2248 68.5024 43.1962 68.5633 43.1698 68.6084C43.1519 68.639 43.1276 68.6737 43.0758 68.7436C43.0264 68.8102 42.9586 68.9002 42.8736 69.0217C42.7023 69.2667 42.4651 69.6342 42.1178 70.2563L42.9909 70.7437ZM44.5438 67.1021C44.6897 66.4027 44.6552 65.7009 44.5758 65.0579C44.536 64.7357 44.4838 64.42 44.4349 64.1246C44.3853 63.8253 44.3395 63.5493 44.3081 63.2885C44.2439 62.7535 44.2536 62.3682 44.3656 62.0892C44.4611 61.8513 44.6565 61.6288 45.147 61.4779L44.853 60.5221C44.1305 60.7444 43.6659 61.148 43.4376 61.7168C43.2258 62.2445 43.2479 62.8466 43.3153 63.4077C43.3498 63.6949 43.3996 63.9941 43.4483 64.2881C43.4977 64.5861 43.5465 64.8819 43.5833 65.1804C43.6572 65.7787 43.6782 66.3549 43.5649 66.8979L44.5438 67.1021ZM45.147 61.4779C45.3925 61.4024 45.5767 61.2974 45.7176 61.1629C45.8483 61.0383 45.9277 60.8928 45.9426 60.8694C45.9576 60.846 45.9091 60.9281 45.8055 60.9566C45.7564 60.9701 45.7681 60.9487 45.9459 60.9882L46.1628 60.012C45.9594 59.9668 45.742 59.9369 45.5403 59.9924C45.2842 60.0628 45.1598 60.2373 45.0998 60.3313C45.0397 60.4254 45.0452 60.4223 45.0273 60.4394C45.0197 60.4466 44.9808 60.4828 44.853 60.5221L45.147 61.4779ZM45.9459 60.9882C46.2638 61.0589 46.4776 61.2049 46.7659 61.4085C47.0514 61.6102 47.4114 61.8694 47.9459 61.9882L48.1628 61.012C47.8449 60.9414 47.6311 60.7954 47.3428 60.5917C47.0573 60.3901 46.6974 60.1308 46.1628 60.012L45.9459 60.9882ZM47.9459 61.9882C48.9412 62.2094 49.7093 61.7639 50.2972 61.4372C50.9234 61.0893 51.3694 60.8601 51.9459 60.9882L52.1628 60.012C51.1675 59.7909 50.3995 60.2364 49.8115 60.5631C49.1854 60.911 48.7393 61.1401 48.1628 61.012L47.9459 61.9882ZM51.9459 60.9882C52.7734 61.1721 53.2032 61.3116 53.6858 61.838L54.4229 61.1623C53.7253 60.4013 53.0402 60.207 52.1628 60.012L51.9459 60.9882ZM53.6858 61.838C54.0733 62.2607 54.2599 62.7408 54.4316 63.3175C54.5974 63.8748 54.7578 64.5683 55.1135 65.2353L55.9959 64.7647C55.7019 64.2134 55.5786 63.6659 55.39 63.0322C55.2072 62.418 54.9684 61.7574 54.4229 61.1623L53.6858 61.838ZM55.1135 65.2353C55.5344 66.0246 56.0511 66.3394 56.4062 66.5994C56.5795 66.7263 56.7023 66.83 56.803 66.9667C56.9012 67.1 56.9968 67.2907 57.0659 67.6068L58.0429 67.3935C57.9492 66.9646 57.8033 66.6385 57.6081 66.3736C57.4155 66.1121 57.1932 65.9363 56.997 65.7926C56.613 65.5114 56.2925 65.3211 55.9959 64.7647L55.1135 65.2353ZM57.0659 67.6068C57.2399 68.4035 57.0519 68.913 56.6099 69.7712L57.4989 70.2291C57.9687 69.317 58.2937 68.5422 58.0429 67.3935L57.0659 67.6068ZM56.6099 69.7712C56.2442 70.4811 55.6847 70.7487 54.9124 70.9869C54.1629 71.218 53.1439 71.4253 52.2522 72.1018L52.8566 72.8985C53.5665 72.3599 54.3371 72.2108 55.2071 71.9425C56.0542 71.6812 56.9439 71.3063 57.4989 70.2291L56.6099 69.7712ZM52.2522 72.1018C50.6639 73.3067 49.9569 74.2553 48.6834 75.6649L49.4254 76.3353C50.7435 74.8763 51.3648 74.0301 52.8566 72.8985L52.2522 72.1018ZM48.6834 75.6649C48.1314 76.2759 47.805 76.9416 47.512 77.4164C47.2114 77.9036 46.9053 78.2798 46.3397 78.5485L46.769 79.4517C47.5809 79.0659 48.0136 78.5079 48.363 77.9416C48.72 77.363 48.9549 76.856 49.4254 76.3353L48.6834 75.6649ZM46.3397 78.5485C45.168 79.1054 44.2666 78.6464 42.7401 78.0358L42.3687 78.9642C43.7428 79.5139 45.119 80.2359 46.769 79.4517L46.3397 78.5485ZM42.7401 78.0358C42.0989 77.7793 41.8117 77.4248 41.6605 76.9797C41.4927 76.4855 41.482 75.8533 41.4999 75.0106L40.5001 74.9894C40.4828 75.8031 40.48 76.6133 40.7136 77.3012C40.9639 78.0381 41.4714 78.6054 42.3687 78.9642L42.7401 78.0358ZM41.4999 75.0106C41.51 74.5333 41.7313 73.7267 42.0473 72.8688C42.357 72.0279 42.7293 71.2124 42.9909 70.7437L42.1178 70.2563C41.8245 70.7817 41.4316 71.6471 41.109 72.5231C40.7926 73.3821 40.5142 74.3284 40.5001 74.9894L41.4999 75.0106ZM20.4544 77.8001C20.8188 77.3143 21.0208 76.5003 21.0502 75.6407C21.0804 74.7596 20.9333 73.7402 20.5108 72.7958L19.5979 73.2042C19.9489 73.9887 20.0766 74.853 20.0508 75.6065C20.0243 76.3816 19.8396 76.9532 19.6544 77.2001L20.4544 77.8001ZM20.5108 72.7958C19.8145 71.2394 18.6752 69.6858 17.652 68.4208C17.1382 67.7857 16.6466 67.2148 16.2492 66.7495C15.8412 66.2719 15.5539 65.9294 15.416 65.7227L14.584 66.2774C14.7629 66.5458 15.0986 66.9421 15.4888 67.399C15.8895 67.8681 16.371 68.4273 16.8745 69.0497C17.8856 70.2996 18.9567 71.7708 19.5979 73.2042L20.5108 72.7958ZM14.5681 66.2518C15.3605 67.611 16.6847 69.48 17.7787 70.9487C18.3273 71.6854 18.8228 72.3277 19.1711 72.7626C19.3438 72.9783 19.4857 73.1496 19.5812 73.2566C19.6186 73.2984 19.6793 73.3656 19.7387 73.4117C19.7511 73.4213 19.8002 73.4597 19.8709 73.4878C19.904 73.501 19.9908 73.5323 20.105 73.5217C20.249 73.5083 20.4012 73.4294 20.4913 73.2766C20.5626 73.1556 20.5625 73.0415 20.5606 72.9982C20.5584 72.946 20.5485 72.905 20.5427 72.8838C20.5309 72.8403 20.5155 72.8061 20.5081 72.79L19.6006 73.21C19.599 73.2065 19.5875 73.1822 19.5778 73.1463C19.573 73.1288 19.5637 73.091 19.5615 73.0413C19.5598 73.0006 19.5593 72.8884 19.6298 72.7688C19.7191 72.6173 19.8701 72.5392 20.0124 72.526C20.1249 72.5155 20.2096 72.5464 20.2401 72.5585C20.3057 72.5846 20.3479 72.6186 20.3517 72.6216C20.3767 72.641 20.3757 72.6448 20.327 72.5904C20.2504 72.5047 20.1226 72.351 19.9516 72.1375C19.6125 71.7141 19.1244 71.0814 18.5807 70.3514C17.4898 68.8868 16.1943 67.0557 15.4319 65.7482L14.5681 66.2518Z" fill="white"/>
<path d="M30.3969 18.2133L28.6243 17.7489C28.6243 17.7489 30.3969 12.1755 33.4989 13.1044C36.601 14.0333 35.2715 20.5356 35.2715 20.5356L33.9421 20.0711C33.9421 20.0711 34.4161 15.3124 32.6126 15.4267C31.2634 15.5121 30.3969 18.2133 30.3969 18.2133Z" fill="white"/>
<path d="M26.4086 18.2133L25.5223 19.1422C25.5223 19.1422 24.636 15.8911 23.3065 16.82C21.977 17.7489 23.3065 20.5356 23.3065 20.5356L22.4202 21C22.4202 21 20.2044 14.9622 22.8634 14.0333C25.5223 13.1044 26.4086 18.2133 26.4086 18.2133Z" fill="white"/>
<path d="M30.3969 18.2133L28.6243 17.7489C28.6243 17.7489 30.3969 12.1755 33.4989 13.1044C36.601 14.0333 35.2715 20.5356 35.2715 20.5356L33.9421 20.0711C33.9421 20.0711 34.4161 15.3124 32.6126 15.4267C31.2634 15.5121 30.3969 18.2133 30.3969 18.2133Z" stroke="white" stroke-width="0.2" stroke-linejoin="round"/>
<path d="M26.4086 18.2133L25.5223 19.1422C25.5223 19.1422 24.636 15.8911 23.3065 16.82C21.977 17.7489 23.3065 20.5356 23.3065 20.5356L22.4202 21C22.4202 21 20.2044 14.9622 22.8634 14.0333C25.5223 13.1044 26.4086 18.2133 26.4086 18.2133Z" stroke="white" stroke-width="0.2" stroke-linejoin="round"/>
</svg>
