<svg width="53" height="64" viewBox="0 0 53 64" fill="none" xmlns="http://www.w3.org/2000/svg">
<path d="M43.7281 35.2616C42.755 28.5996 50.0537 21.9376 50.0537 21.9376C50.0537 21.9376 46.161 16.7032 39.3489 16.2274C32.5368 15.7515 31.768 19.1259 26.6978 19.0825C21.8125 19.0407 19.3987 15.426 14.5333 16.2274C10.1537 16.9488 7.23431 18.1308 3.34193 23.8411C-0.55046 29.5513 1.22375 43.827 2.85535 47.6338C4.48694 51.4407 8.82315 61.8673 16.9662 62.8612C21.2203 63.3804 23.3846 60.5577 27.671 60.4819C32.3286 60.3996 34.7717 63.708 39.3489 62.8612C47.3404 61.3827 52 46.6821 52 46.6821C52 46.6821 44.7013 41.9236 43.7281 35.2616Z" fill="white"/>
<path d="M35.9428 10.0413C33.0238 14.324 26.6978 15.2757 26.6978 15.2757C26.6978 15.2757 25.725 9.5654 29.6173 5.75855C33.5095 1.95171 39.3489 1 39.3489 1C39.3489 1 38.8619 5.75855 35.9428 10.0413Z" fill="white"/>
<path d="M43.7281 35.2616C42.755 28.5996 50.0537 21.9376 50.0537 21.9376C50.0537 21.9376 46.161 16.7032 39.3489 16.2274C32.5368 15.7515 31.768 19.1259 26.6978 19.0825C21.8125 19.0407 19.3987 15.426 14.5333 16.2274C10.1537 16.9488 7.23431 18.1308 3.34193 23.8411C-0.55046 29.5513 1.22375 43.827 2.85535 47.6338C4.48694 51.4407 8.82315 61.8673 16.9662 62.8612C21.2203 63.3804 23.3846 60.5577 27.671 60.4819C32.3286 60.3996 34.7717 63.708 39.3489 62.8612C47.3404 61.3827 52 46.6821 52 46.6821C52 46.6821 44.7013 41.9236 43.7281 35.2616Z" stroke="white"/>
<path d="M35.9428 10.0413C33.0238 14.324 26.6978 15.2757 26.6978 15.2757C26.6978 15.2757 25.725 9.5654 29.6173 5.75855C33.5095 1.95171 39.3489 1 39.3489 1C39.3489 1 38.8619 5.75855 35.9428 10.0413Z" stroke="white"/>
</svg>
