<svg width="60" height="61" viewBox="0 0 60 61" fill="none" xmlns="http://www.w3.org/2000/svg">
<path d="M42.9926 18.7647V9.125C42.9926 9.125 42.1544 2 30 2C17.8456 2 17.0074 9.125 17.0074 9.125V14.9926H30V18.7647H8.20588C8.20588 18.7647 1.5 19.6029 1.5 30.5C1.5 41.3971 8.20588 42.2353 8.20588 42.2353H17.4265M42.9926 18.7647V25.8897C42.1738 28.773 41.1625 29.6753 38.8015 30.5H21.1985C18.6149 31.5649 17.9033 32.4936 17.4265 34.6912V42.2353M42.9926 18.7647H51.7941C51.7941 18.7647 58.5 20.0221 58.5 30.5C58.5 40.9779 51.7941 42.2353 51.7941 42.2353H30V46.0074H42.9926V52.2941C42.9926 52.2941 41.3162 59 30 59C18.6838 59 17.4265 52.2941 17.4265 52.2941V42.2353" stroke="white" stroke-width="3" stroke-linejoin="round"/>
<circle cx="23.7139" cy="9.96322" r="2.51471" fill="white"/>
</svg>
