<svg width="220" height="219" viewBox="0 0 220 219" fill="none" xmlns="http://www.w3.org/2000/svg">
<path d="M158.416 60.8618L145.867 73.4103M107.081 38.3315V55.7283M54.3205 59.721L66.2986 71.9843M34.0718 113.052H50.3278M70.0061 113.052H107.081V69.1324M56.3168 162.676L68.2949 150.983" stroke="white" stroke-width="4"/>
<path d="M142.549 175.829H114.241C114.241 175.829 140.697 148.921 140.697 142.527C140.697 136.133 137.787 129.472 128.792 127.341C119.796 125.209 114.241 132.403 114.241 132.403M179.587 175.829V127.341L154.189 159.045H185.937" stroke="white" stroke-width="6"/>
<path d="M186.092 105.437L181.317 114.425L174.856 105.981" stroke="white" stroke-width="6"/>
<path d="M180.723 113.258C182.342 71.9758 148.712 37 107.397 37C66.083 37 32.2276 71.9852 34.072 113.258C35.8362 152.738 67.8789 183.214 107.397 182.999" stroke="white" stroke-width="4"/>
</svg>
