<svg width="238" height="228" viewBox="0 0 238 228" fill="none" xmlns="http://www.w3.org/2000/svg">
<path d="M192.776 38.6104L173.523 57.863M114.015 4.04321V30.7344M33.0667 36.8602L51.4443 55.6752M2 118.684H26.9409M57.1325 118.684H114.015V51.2996M36.1297 194.819L54.5072 176.879" stroke="white" stroke-width="3"/>
<path d="M168.432 215H125C125 215 165.59 173.715 165.59 163.905C165.59 154.095 161.125 143.876 147.325 140.606C133.524 137.335 125 148.372 125 148.372M225.258 215V140.606L186.292 189.248H235" stroke="white" stroke-width="6"/>
<path d="M235.239 107L227.912 120.791L218 107.836" stroke="white" stroke-width="6"/>
<path d="M227 119C229.485 55.6619 177.887 2 114.5 2C51.1131 2 -0.829738 55.6763 1.99999 119C4.70675 179.572 53.8686 226.33 114.5 226" stroke="white" stroke-width="3"/>
</svg>
