<svg width="220" height="219" viewBox="0 0 220 219" fill="none" xmlns="http://www.w3.org/2000/svg">
<path d="M20.1704 137.663L28.9264 136.353M41.1518 134.524L34.5435 135.35M28.9264 136.353V157.818L20.1704 158.81L45.7776 155.836M28.9264 136.353L34.5435 135.35M34.5435 135.35C34.5435 133.533 34.3566 130.982 36.0303 125.438M61.8027 174.835C61.8027 174.835 72.3404 172.659 78.8191 170.374C85.8436 167.897 96.1659 162.444 96.1659 162.444C158.348 165.584 183.841 161.398 210.985 142.289C209.228 127.535 206.916 115.358 203.286 104.622M36.6912 104.787C36.6912 104.787 37.8306 96.0856 51.675 78.5189M168.692 57.0235C171.544 58.8507 174.099 60.8449 176.292 62.9894C181.589 68.1704 186.069 73.2737 189.88 78.5189M168.692 57.0235C144.335 41.4167 98.356 37.9855 72.1152 57.0235M168.692 57.0235C127.473 67.0192 106.199 67.3877 72.1152 57.0235M72.1152 57.0235C69.7133 58.7661 67.4767 60.697 65.4373 62.8241C59.8318 68.6703 55.3144 73.9009 51.675 78.5189M51.675 78.5189C95.8236 91.8356 126.678 91.03 189.88 78.5189M189.88 78.5189C195.76 86.6125 200.048 95.0443 203.286 104.622M203.286 104.622C157.078 121.612 129.535 123.709 77.6627 115.03" stroke="white" stroke-width="3"/>
<path d="M60.6463 158.314L75.3498 154.184M69.7327 129.238L53.8728 131.22M73.8629 144.106L92.3662 137.994M63.4548 117.178H79.6452M52.2207 104.457C55.126 95.8586 57.1668 90.928 61.968 81.8231M100.957 87.9358C99.497 99.9449 99.3632 106.219 99.4701 117.178M128.877 119.986L132.016 163.27M190.169 154.184C189.594 131.659 188.497 121.548 184.222 111.065M159.44 116.186C157.378 104.236 155.945 97.5208 151.841 85.4577M174.144 81.8231C167.946 69.6411 165.071 65.0967 160.432 58.8592M130.86 44.6514C136.963 51.5922 139.621 55.4972 142.589 62.4938M111.53 44.6514L105.583 63.8155M89.2272 62.4938C83.1306 70.3353 80.6208 75.3568 77.8279 85.4577" stroke="white" stroke-width="3"/>
<path d="M45.6124 154.679L60.1507 158.314M53.8728 131.716L42.9691 137.663M27.9352 122.629L26.7788 111.065L36.8564 105.117C14.3769 106.518 9.20914 118.204 10.0928 153.853M10.7536 136.507L19.6748 142.124" stroke="white" stroke-width="3"/>
<path d="M28.9259 122.63C37.8471 120.812 46.3091 136.518 46.2727 168.062L61.4718 175C61.5369 168.748 61.2599 164.964 60.3154 157.819C58.6021 146.704 57.2256 140.994 54.0375 131.716C48.5856 115.195 39.4475 107.251 26.4478 110.735C17.6918 113.081 12.6807 120.455 10.5879 136.342V154.184L20.3351 158.645C18.9136 134.847 20.0047 124.447 28.9259 122.63Z" stroke="white" stroke-width="3"/>
<path d="M77.4975 115.195C90.9983 127.103 95.5246 136.923 96.166 162.114M77.4975 169.383C73.0521 128.434 67.048 112.749 46.4385 105.283M46.4385 105.283H37.3521M46.4385 105.283L38.5085 101.152M46.4385 105.283C58.9675 105.255 65.6551 106.965 76.6715 114.699" stroke="white" stroke-width="3"/>
<path fill-rule="evenodd" clip-rule="evenodd" d="M108.429 89.9836V101.381C108.526 101.392 108.604 101.409 108.682 101.407C110.426 101.37 112.172 101.385 113.912 101.275C115.386 101.182 116.83 100.852 118.182 100.174C120.971 98.7749 121.901 95.3148 120.159 92.7688C119.339 91.5697 118.146 90.9691 116.849 90.5778C114.095 89.748 111.277 89.9401 108.429 89.9836M108.426 107.228V119.783C108.522 119.795 108.6 119.815 108.677 119.813C111.017 119.743 113.359 119.733 115.693 119.579C117.246 119.477 118.769 119.089 120.202 118.401C121.616 117.72 122.807 116.768 123.278 115.113C123.892 112.95 123.385 110.451 121.107 108.994C119.431 107.922 117.566 107.473 115.655 107.355C113.401 107.216 111.138 107.243 108.879 107.2C108.732 107.198 108.586 107.218 108.426 107.228M92 126.601C92 126.486 92 126.371 92 126.255C92.0254 126.208 92.0659 126.163 92.0739 126.112C92.27 124.865 92.4622 123.617 92.6572 122.37C92.7915 121.511 92.9293 120.653 93.0678 119.78C93.2736 119.78 93.4348 119.78 93.5956 119.78C94.733 119.779 95.8707 119.803 97.0069 119.769C98.3102 119.731 99.0056 118.933 99.0056 117.54C99.006 109.166 99.0052 100.792 99.004 92.4177C99.004 91.1139 98.2483 90.0557 97.0605 89.7265C96.736 89.637 96.3945 89.5796 96.0597 89.5742C94.7068 89.5509 93.3534 89.5539 92 89.5471V83.4148H102.875C102.875 83.1776 102.875 83.0071 102.875 82.8366C102.88 79.8913 102.885 76.9457 102.889 74H108.253C108.258 76.8912 108.262 79.7824 108.266 82.6736C108.267 82.8421 108.266 83.0109 108.266 83.1641H112.56V74H118.005C117.999 74.0861 117.987 74.1718 117.987 74.2575C117.987 77.2069 117.987 80.156 117.989 83.1054C117.989 83.2021 118.008 83.2992 118.019 83.4085C118.317 83.4435 118.599 83.4747 118.879 83.5094C120.952 83.7639 122.999 84.1454 124.952 84.9604C127.018 85.8219 128.785 87.0894 129.932 89.1757C130.75 90.6648 131.067 92.3008 131.126 94.0021C131.255 97.751 129.963 100.697 126.807 102.582C126.722 102.633 126.643 102.699 126.532 102.78C127.081 102.962 127.585 103.111 128.079 103.295C131.101 104.419 133.22 106.463 133.962 109.885C134.083 110.442 134.16 111.01 134.258 111.572V114.25C134.176 114.83 134.102 115.412 134.012 115.991C133.389 120.004 131.382 122.905 127.87 124.584C125.397 125.766 122.765 126.234 120.092 126.508C119.398 126.579 118.703 126.635 117.989 126.699C117.989 127.349 117.988 127.952 117.989 128.554C117.994 131.099 118 133.644 118.005 136.189H112.56V126.82H108.266C108.266 127 108.267 127.17 108.266 127.339C108.262 130.289 108.258 133.239 108.253 136.189H102.889V126.673C102.677 126.673 102.531 126.674 102.385 126.673C99.0981 126.66 95.8111 126.646 92.5242 126.631C92.3495 126.63 92.1747 126.611 92 126.601" fill="white"/>
</svg>
