<svg width="337" height="222" viewBox="0 0 337 222" fill="none" xmlns="http://www.w3.org/2000/svg">
<g opacity="0.8">
<path d="M18.8473 157.152L33.3515 154.982M53.6026 151.952L42.6561 153.32M33.3515 154.982V190.539L18.8473 192.181L61.2652 187.255M33.3515 154.982L42.6561 153.32M42.6561 153.32C42.6561 150.31 42.3466 146.084 45.1191 136.901M87.8107 218.726C87.8107 218.726 105.266 215.123 115.998 211.337C127.634 207.233 144.733 198.201 144.733 198.201C247.736 203.403 289.965 196.468 334.929 164.814C332.018 140.375 328.189 120.204 322.176 102.419M46.2137 102.693C46.2137 102.693 48.1012 88.2791 71.0341 59.1801M264.871 23.5732C269.595 26.6 273.828 29.9033 277.46 33.4557C286.234 42.038 293.656 50.4914 299.969 59.1801M264.871 23.5732C224.525 -2.27912 148.361 -7.963 104.893 23.5732M264.871 23.5732C196.592 40.131 161.352 40.7414 104.893 23.5732M104.893 23.5732C100.914 26.4599 97.2096 29.6584 93.8313 33.1818C84.5458 42.8661 77.0628 51.5305 71.0341 59.1801M71.0341 59.1801C144.166 81.239 195.276 79.9046 299.969 59.1801M299.969 59.1801C309.71 72.5871 316.812 86.5542 322.176 102.419M322.176 102.419C245.633 130.563 200.009 134.036 114.082 119.66" stroke="white" stroke-width="3"/>
<path d="M85.895 191.36L110.251 184.518M100.947 143.195L74.6748 146.479M107.788 167.825L138.438 157.699M90.5473 123.217H117.366M71.9381 102.145C76.7506 87.9029 80.1312 79.7354 88.0843 64.6533M152.669 74.7789C150.251 94.6719 150.029 105.065 150.206 123.217M198.918 127.87L204.118 199.57M300.448 184.518C299.495 147.206 297.679 130.457 290.596 113.092M249.546 121.575C246.129 101.78 243.755 90.6564 236.958 70.6739M273.902 64.6533C263.636 44.4741 258.873 36.9462 251.188 26.614M202.202 3.07886C212.312 14.5762 216.715 21.0448 221.632 32.6346M170.184 3.07886L160.332 34.8239M133.239 32.6346C123.14 45.6239 118.982 53.942 114.356 70.6739" stroke="white" stroke-width="3"/>
<path d="M60.9915 185.339L85.0739 191.36M74.6747 147.3L56.6129 157.152M31.7094 132.248L29.7938 113.092L46.4873 103.24C9.25025 105.561 0.689958 124.918 2.15369 183.971M3.24835 155.236L18.0262 164.541" stroke="white" stroke-width="3"/>
<path d="M33.3515 132.248C48.1294 129.238 62.1465 155.254 62.0862 207.506L87.2633 219C87.3711 208.643 86.9122 202.375 85.3477 190.539C82.5097 172.127 80.2295 162.668 74.9485 147.3C65.9175 119.934 50.7803 106.774 29.2465 112.545C14.7423 116.431 6.4415 128.646 2.97479 154.963V184.518L19.121 191.907C16.7662 152.486 18.5736 135.259 33.3515 132.248Z" stroke="white" stroke-width="3"/>
<path d="M113.809 119.934C136.173 139.66 143.67 155.926 144.733 197.654M113.809 209.695C106.445 141.864 96.4992 115.883 62.3598 103.514M62.3598 103.514H47.3083M62.3598 103.514L49.224 96.6721M62.3598 103.514C83.1139 103.468 94.1919 106.301 112.44 119.113" stroke="white" stroke-width="3"/>
</g>
<path fill-rule="evenodd" clip-rule="evenodd" d="M194.881 89.1437V108.024C195.043 108.041 195.171 108.07 195.3 108.067C198.189 108.006 201.082 108.03 203.965 107.848C206.406 107.694 208.798 107.147 211.037 106.023C215.657 103.706 217.197 97.9747 214.312 93.7574C212.953 91.7711 210.978 90.7762 208.828 90.1281C204.268 88.7535 199.599 89.0716 194.881 89.1437ZM194.876 117.71V138.506C195.034 138.526 195.164 138.559 195.292 138.555C199.167 138.44 203.048 138.423 206.914 138.168C209.486 137.999 212.009 137.357 214.382 136.216C216.726 135.089 218.698 133.512 219.477 130.77C220.496 127.187 219.655 123.048 215.882 120.635C213.106 118.858 210.016 118.115 206.85 117.919C203.117 117.689 199.368 117.733 195.626 117.663C195.383 117.659 195.141 117.693 194.876 117.71ZM167.667 149.8C167.667 149.609 167.667 149.418 167.667 149.227C167.709 149.148 167.776 149.073 167.789 148.989C168.114 146.924 168.432 144.857 168.755 142.791C168.978 141.368 169.206 139.947 169.436 138.501C169.776 138.501 170.043 138.501 170.31 138.501C172.194 138.498 174.078 138.538 175.96 138.483C178.119 138.42 179.271 137.097 179.271 134.79C179.272 120.919 179.271 107.047 179.269 93.1753C179.269 91.0155 178.017 89.2627 176.049 88.7174C175.512 88.5692 174.946 88.4741 174.392 88.465C172.15 88.4265 169.908 88.4314 167.667 88.4203V78.2621H185.681C185.681 77.8692 185.68 77.5867 185.681 77.3043C185.689 72.4255 185.697 67.5461 185.705 62.6666H194.59C194.597 67.4559 194.604 72.2451 194.612 77.0344C194.612 77.3134 194.612 77.593 194.612 77.8468H201.724V62.6666H210.743C210.733 62.8093 210.714 62.9512 210.714 63.0931C210.713 67.9789 210.714 72.8639 210.717 77.7496C210.717 77.9098 210.748 78.0706 210.766 78.2516C211.261 78.3097 211.727 78.3614 212.192 78.4187C215.626 78.8403 219.015 79.4724 222.252 80.8225C225.674 82.2495 228.6 84.349 230.5 87.805C231.855 90.2716 232.38 92.9816 232.478 95.7999C232.692 102.01 230.552 106.89 225.325 110.012C225.182 110.096 225.053 110.206 224.868 110.34C225.778 110.641 226.613 110.889 227.431 111.193C232.436 113.056 235.946 116.441 237.177 122.109C237.377 123.032 237.505 123.973 237.667 124.905V129.34C237.531 130.301 237.408 131.265 237.259 132.223C236.227 138.872 232.902 143.678 227.085 146.459C222.989 148.417 218.629 149.192 214.201 149.645C213.051 149.763 211.9 149.856 210.717 149.963C210.717 151.039 210.716 152.037 210.718 153.035C210.726 157.251 210.735 161.466 210.743 165.681H201.724V150.162H194.612C194.612 150.46 194.612 150.741 194.612 151.022C194.604 155.909 194.597 160.795 194.59 165.681H185.705V149.919C185.353 149.919 185.111 149.92 184.869 149.919C179.425 149.897 173.98 149.874 168.535 149.849C168.246 149.848 167.956 149.816 167.667 149.8Z" fill="white"/>
</svg>
