<svg width="220" height="219" viewBox="0 0 220 219" fill="none" xmlns="http://www.w3.org/2000/svg">
<path fill-rule="evenodd" clip-rule="evenodd" d="M102.916 102.006V110.016C102.984 110.023 103.039 110.035 103.093 110.034C104.319 110.008 105.546 110.018 106.769 109.941C107.804 109.876 108.819 109.644 109.769 109.167C111.729 108.184 112.382 105.753 111.158 103.964C110.582 103.121 109.744 102.699 108.832 102.424C106.898 101.841 104.917 101.976 102.916 102.006M102.914 114.124V122.947C102.981 122.955 103.036 122.969 103.09 122.967C104.734 122.919 106.38 122.911 108.021 122.803C109.112 122.731 110.182 122.459 111.189 121.975C112.183 121.497 113.019 120.828 113.35 119.665C113.782 118.145 113.425 116.389 111.825 115.365C110.647 114.612 109.336 114.296 107.993 114.213C106.41 114.115 104.82 114.134 103.232 114.105C103.129 114.103 103.026 114.117 102.914 114.124M91.3706 127.738C91.3706 127.657 91.3706 127.576 91.3706 127.495C91.3885 127.461 91.4169 127.429 91.4225 127.394C91.5604 126.518 91.6954 125.641 91.8325 124.764C91.9268 124.161 92.0236 123.558 92.121 122.944C92.2656 122.944 92.3789 122.944 92.4919 122.944C93.2911 122.943 94.0906 122.96 94.889 122.937C95.8049 122.91 96.2935 122.349 96.2935 121.37C96.2938 115.486 96.2932 109.601 96.2924 103.716C96.2924 102.8 95.7614 102.057 94.9267 101.825C94.6987 101.762 94.4587 101.722 94.2234 101.718C93.2727 101.702 92.3216 101.704 91.3706 101.699V97.3899H99.0127C99.0127 97.2232 99.0124 97.1034 99.0127 96.9835C99.016 94.9139 99.0194 92.8439 99.0227 90.7739H102.792C102.795 92.8056 102.798 94.8373 102.801 96.869C102.802 96.9874 102.801 97.106 102.801 97.2137H105.818V90.7739H109.645C109.64 90.8344 109.632 90.8946 109.632 90.9549C109.632 93.0275 109.632 95.0998 109.633 97.1725C109.633 97.2404 109.647 97.3086 109.654 97.3854C109.864 97.41 110.062 97.432 110.259 97.4563C111.716 97.6352 113.154 97.9033 114.527 98.476C115.979 99.0814 117.22 99.9721 118.026 101.438C118.601 102.485 118.824 103.634 118.865 104.83C118.956 107.464 118.048 109.534 115.83 110.859C115.77 110.895 115.715 110.941 115.637 110.998C116.023 111.126 116.377 111.231 116.724 111.36C118.847 112.15 120.336 113.586 120.858 115.991C120.943 116.382 120.997 116.781 121.066 117.177V119.058C121.009 119.466 120.956 119.875 120.893 120.281C120.455 123.102 119.045 125.141 116.577 126.32C114.839 127.151 112.99 127.48 111.111 127.672C110.624 127.722 110.135 127.761 109.633 127.807C109.633 128.263 109.633 128.687 109.634 129.11C109.637 130.898 109.641 132.687 109.645 134.475H105.818V127.891H102.801C102.801 128.018 102.802 128.137 102.801 128.256C102.798 130.329 102.795 132.402 102.792 134.475H99.0227V127.788C98.8737 127.788 98.7708 127.789 98.6681 127.788C96.3585 127.779 94.0488 127.769 91.739 127.758C91.6162 127.758 91.4934 127.745 91.3706 127.738" fill="white"/>
<path d="M90.8198 92.7256C90.8198 92.7256 88.2732 100.679 87.1382 105.776M87.1382 105.776C90.8198 106.856 94.5326 112.472 93.8232 117.476C93.1611 122.146 89.7541 126.116 85.8787 127.016C82.0033 127.916 73.1706 126.584 70.4741 121.076C67.8965 115.811 70.9585 109.466 74.9307 106.856C78.903 104.246 82.4877 104.516 87.1382 105.776Z" stroke="white" stroke-width="2"/>
<path d="M91.3706 123.972L98.4835 132.355" stroke="white" stroke-width="2"/>
<path d="M102.04 85.1045L116.47 97.9935M122.846 114.398L114.121 132.476M117.98 140.176L145.665 132.476M138.785 100.672L156.403 89.624M137.107 110.046L149.02 121.428M115.631 148.211L128.047 157.25" stroke="white" stroke-width="2"/>
<path d="M79.1771 126.766L70.54 152.677" stroke="white" stroke-width="2"/>
<path d="M82.0807 117.112C84.939 117.079 87.1156 113.851 85.9857 111.449C85.1814 109.74 83.5324 108.811 81.5092 109.01C79.0536 109.252 77.3447 111.392 77.6994 113.627C78.0251 115.68 79.8135 117.138 82.0807 117.112Z" stroke="white" stroke-width="2"/>
<path d="M88.3225 125.75C88.3225 125.75 88.3225 120.786 86.223 119.93C84.1236 119.074 79.8246 118.817 77.0253 119.673C74.226 120.529 75.3257 125.407 75.3257 125.407" stroke="white" stroke-width="2"/>
<path d="M59.9682 99.3312C63.6422 97.6828 65.3813 94.9631 65.4593 88.5406C65.5573 80.4606 53.5946 76.7314 48.6919 79.3062C43.7892 81.881 40.5533 86.4097 41.1417 92.0922C41.4616 95.1828 44.0408 97.9234 47.4172 99.4853M59.9682 99.3312C59.02 99.7567 57.943 100.111 56.7324 100.439C53.6415 101.276 50.2489 100.795 47.4172 99.4853M59.9682 99.3312C60.1933 95.0992 59.2818 94.0458 58.1051 93.4243C56.9285 92.8027 50.5549 92.8027 49.5744 93.1579C48.5938 93.5131 47.8094 94.3122 47.4172 95.6441C47.0249 96.9759 47.4172 99.4853 47.4172 99.4853M56.2421 83.9235C58.2187 85.4683 58.5124 88.2317 56.7324 89.9614C54.9572 91.6864 51.9059 91.6287 50.0646 89.9614C48.2234 88.2941 48.1545 85.526 50.0646 83.9235C51.8343 82.4389 54.4157 82.4963 56.2421 83.9235Z" stroke="white" stroke-width="2"/>
<path d="M24.9115 86.6296C28.5855 84.9811 30.3247 82.2614 30.4026 75.8389C30.5006 67.7589 18.538 64.0297 13.6352 66.6046C8.73252 69.1794 5.49668 73.7081 6.08501 79.3906C6.40499 82.4811 8.98413 85.2217 12.3605 86.7836M24.9115 86.6296C23.9634 87.055 22.8863 87.4091 21.6757 87.737C18.5848 88.5743 15.1923 88.0935 12.3605 86.7836M24.9115 86.6296C25.1367 82.3975 24.2252 81.3442 23.0485 80.7226C21.8718 80.1011 15.4983 80.1011 14.5177 80.4562C13.5372 80.8114 12.7527 81.6105 12.3605 82.9424C11.9683 84.2743 12.3605 86.7836 12.3605 86.7836M21.1855 71.2219C23.1621 72.7666 23.4557 75.53 21.6757 77.2597C19.9005 78.9848 16.8492 78.927 15.008 77.2597C13.1668 75.5924 13.0979 72.8244 15.008 71.2219C16.7777 69.7372 19.3591 69.7946 21.1855 71.2219Z" stroke="white" stroke-width="2"/>
<path d="M133.129 113.522C136.803 111.837 138.542 109.055 138.62 102.487C138.718 94.2229 126.755 90.409 121.853 93.0423C116.95 95.6757 113.714 100.307 114.302 106.119C114.622 109.28 117.201 112.083 120.578 113.68M133.129 113.522C132.181 113.958 131.104 114.32 129.893 114.655C126.802 115.511 123.41 115.02 120.578 113.68M133.129 113.522C133.354 109.194 132.442 108.117 131.266 107.481C130.089 106.846 123.716 106.846 122.735 107.209C121.754 107.572 120.97 108.389 120.578 109.751C120.186 111.114 120.578 113.68 120.578 113.68M129.403 97.7646C131.379 99.3444 131.673 102.171 129.893 103.94C128.118 105.704 125.067 105.645 123.225 103.94C121.384 102.234 121.315 99.4035 123.225 97.7646C124.995 96.2462 127.576 96.3049 129.403 97.7646Z" stroke="white" stroke-width="2"/>
<path d="M173.266 92.7263C176.94 91.0778 178.679 88.3581 178.757 81.9356C178.855 73.8556 166.892 70.1264 161.99 72.7012C157.087 75.2761 153.851 79.8047 154.44 85.4873C154.759 88.5778 157.339 91.3184 160.715 92.8803M173.266 92.7263C172.318 93.1517 171.241 93.5057 170.03 93.8337C166.939 94.671 163.547 94.1902 160.715 92.8803M173.266 92.7263C173.491 88.4942 172.58 87.4408 171.403 86.8193C170.226 86.1977 163.853 86.1977 162.872 86.5529C161.892 86.9081 161.107 87.7072 160.715 89.0391C160.323 90.371 160.715 92.8803 160.715 92.8803M169.54 77.3186C171.517 78.8633 171.81 81.6267 170.03 83.3564C168.255 85.0814 165.204 85.0237 163.362 83.3564C161.521 81.6891 161.452 78.9211 163.362 77.3186C165.132 75.8339 167.714 75.8913 169.54 77.3186Z" stroke="white" stroke-width="2"/>
<path d="M139.734 67.8312C143.408 66.1828 145.147 63.4631 145.225 57.0406C145.323 48.9606 133.361 45.2314 128.458 47.8062C123.555 50.381 120.319 54.9097 120.908 60.5922C121.228 63.6828 123.807 66.4234 127.183 67.9853M139.734 67.8312C138.786 68.2567 137.709 68.6107 136.498 68.9387C133.408 69.776 130.015 69.2952 127.183 67.9853M139.734 67.8312C139.959 63.5992 139.048 62.5458 137.871 61.9243C136.695 61.3027 130.321 61.3027 129.34 61.6579C128.36 62.0131 127.575 62.8122 127.183 64.1441C126.791 65.4759 127.183 67.9853 127.183 67.9853M136.008 52.4235C137.985 53.9683 138.278 56.7317 136.498 58.4614C134.723 60.1864 131.672 60.1287 129.831 58.4614C127.99 56.7941 127.921 54.026 129.831 52.4235C131.6 50.9389 134.182 50.9963 136.008 52.4235Z" stroke="white" stroke-width="2"/>
<path d="M209.847 116.097C213.521 114.449 215.26 111.729 215.338 105.307C215.436 97.2267 203.474 93.4975 198.571 96.0723C193.668 98.6472 190.432 103.176 191.021 108.858C191.341 111.949 193.92 114.69 197.296 116.251M209.847 116.097C208.899 116.523 207.822 116.877 206.611 117.205C203.52 118.042 200.128 117.561 197.296 116.251M209.847 116.097C210.072 111.865 209.161 110.812 207.984 110.19C206.807 109.569 200.434 109.569 199.453 109.924C198.473 110.279 197.688 111.078 197.296 112.41C196.904 113.742 197.296 116.251 197.296 116.251M206.121 100.69C208.098 102.234 208.391 104.998 206.611 106.728C204.836 108.453 201.785 108.395 199.944 106.728C198.102 105.06 198.033 102.292 199.944 100.69C201.713 99.205 204.295 99.2624 206.121 100.69Z" stroke="white" stroke-width="2"/>
<path d="M200.194 155.727C203.868 154.078 205.607 151.359 205.685 144.936C205.783 136.856 193.82 133.127 188.917 135.702C184.015 138.277 180.779 142.805 181.367 148.488C181.687 151.578 184.266 154.319 187.643 155.881M200.194 155.727C199.246 156.152 198.169 156.506 196.958 156.834C193.867 157.672 190.475 157.191 187.643 155.881M200.194 155.727C200.419 151.495 199.507 150.441 198.331 149.82C197.154 149.198 190.781 149.198 189.8 149.553C188.819 149.909 188.035 150.708 187.643 152.04C187.251 153.371 187.643 155.881 187.643 155.881M196.468 140.319C198.444 141.864 198.738 144.627 196.958 146.357C195.183 148.082 192.131 148.024 190.29 146.357C188.449 144.69 188.38 141.922 190.29 140.319C192.06 138.834 194.641 138.892 196.468 140.319Z" stroke="white" stroke-width="2"/>
<path d="M206.799 75.4518C210.473 73.8034 212.212 71.0837 212.29 64.6612C212.388 56.5812 200.425 52.852 195.522 55.4268C190.62 58.0016 187.384 62.5303 187.972 68.2128C188.292 71.3034 190.871 74.044 194.248 75.6059M206.799 75.4518C205.851 75.8773 204.774 76.2313 203.563 76.5593C200.472 77.3966 197.079 76.9158 194.248 75.6059M206.799 75.4518C207.024 71.2198 206.112 70.1664 204.936 69.5449C203.759 68.9233 197.385 68.9233 196.405 69.2785C195.424 69.6337 194.64 70.4328 194.248 71.7647C193.856 73.0965 194.248 75.6059 194.248 75.6059M203.073 60.0441C205.049 61.5889 205.343 64.3523 203.563 66.082C201.788 67.807 198.736 67.7493 196.895 66.082C195.054 64.4147 194.985 61.6466 196.895 60.0441C198.665 58.5595 201.246 58.6169 203.073 60.0441Z" stroke="white" stroke-width="2"/>
<path d="M188.665 71.1328L177.995 78.2457M177.233 89.4231L193.237 100.347M169.358 125.496L192.729 113.048M166.818 137.181L181.806 143.532" stroke="white" stroke-width="2"/>
<path d="M144.21 63.7661L156.911 76.9758M131.762 69.1008L128.206 92.2177" stroke="white" stroke-width="2"/>
<path d="M164.122 138.926C167.795 137.24 169.535 134.458 169.613 127.89C169.711 119.626 157.748 115.812 152.845 118.446C147.942 121.079 144.707 125.711 145.295 131.522C145.615 134.683 148.194 137.486 151.57 139.083M164.122 138.926C163.173 139.361 162.096 139.723 160.886 140.058C157.795 140.915 154.402 140.423 151.57 139.083M164.122 138.926C164.347 134.598 163.435 133.52 162.258 132.885C161.082 132.249 154.708 132.249 153.728 132.612C152.747 132.975 151.963 133.793 151.57 135.155C151.178 136.517 151.57 139.083 151.57 139.083M160.395 123.168C162.372 124.748 162.666 127.574 160.886 129.343C159.11 131.107 156.059 131.048 154.218 129.343C152.377 127.638 152.308 124.807 154.218 123.168C155.988 121.649 158.569 121.708 160.395 123.168Z" stroke="white" stroke-width="2"/>
<path d="M145.323 171.442C148.997 169.756 150.736 166.974 150.814 160.406C150.912 152.142 138.949 148.328 134.046 150.962C129.144 153.595 125.908 158.227 126.496 164.038C126.816 167.199 129.395 170.002 132.772 171.599M145.323 171.442C144.375 171.877 143.297 172.239 142.087 172.574C138.996 173.431 135.603 172.939 132.772 171.599M145.323 171.442C145.548 167.114 144.636 166.036 143.46 165.401C142.283 164.765 135.909 164.765 134.929 165.128C133.948 165.491 133.164 166.309 132.772 167.671C132.379 169.033 132.772 171.599 132.772 171.599M141.597 155.684C143.573 157.264 143.867 160.09 142.087 161.859C140.312 163.623 137.26 163.564 135.419 161.859C133.578 160.154 133.509 157.323 135.419 155.684C137.189 154.166 139.77 154.224 141.597 155.684Z" stroke="white" stroke-width="2"/>
<path d="M112.412 151.119C116.01 149.433 117.713 146.652 117.789 140.083C117.885 131.82 106.172 128.006 101.371 130.639C96.5705 133.272 93.402 137.904 93.9781 143.716C94.2914 146.876 96.8168 149.679 100.123 151.277M112.412 151.119C111.484 151.554 110.429 151.916 109.244 152.252C106.218 153.108 102.896 152.616 100.123 151.277M112.412 151.119C112.633 146.791 111.74 145.714 110.588 145.078C109.436 144.442 103.195 144.442 102.235 144.805C101.275 145.169 100.507 145.986 100.123 147.348C99.7388 148.71 100.123 151.277 100.123 151.277M108.764 135.361C110.699 136.941 110.987 139.767 109.244 141.536C107.506 143.301 104.518 143.242 102.715 141.536C100.912 139.831 100.845 137 102.715 135.361C104.448 133.843 106.976 133.902 108.764 135.361Z" stroke="white" stroke-width="2"/>
<path d="M69.7352 171.442C73.3326 169.756 75.0355 166.974 75.1118 160.406C75.2078 152.142 63.4944 148.328 58.6938 150.962C53.8932 153.595 50.7248 158.227 51.3009 164.038C51.6142 167.199 54.1396 170.002 57.4456 171.599M69.7352 171.442C68.8068 171.877 67.7522 172.239 66.5668 172.574C63.5403 173.431 60.2184 172.939 57.4456 171.599M69.7352 171.442C69.9556 167.114 69.0631 166.036 67.9109 165.401C66.7588 164.765 60.518 164.765 59.5579 165.128C58.5978 165.491 57.8297 166.309 57.4456 167.671C57.0616 169.033 57.4456 171.599 57.4456 171.599M66.0867 155.684C68.0222 157.264 68.3097 160.09 66.5668 161.859C64.8285 163.623 61.8408 163.564 60.038 161.859C58.2351 160.154 58.1676 157.323 60.038 155.684C61.7708 154.166 64.2984 154.224 66.0867 155.684Z" stroke="white" stroke-width="2"/>
<path d="M64.9517 85.9765C64.9517 85.9765 73.1584 83.7596 78.107 82.3391M78.107 82.3391C77.8 80.7422 79.0066 74.3074 83.137 71.6931C87.8316 68.7216 93.282 68.433 97.7432 71.6931C101.509 74.4451 102.433 77.9496 101.903 82.3391C101.495 85.7118 100.789 87.364 97.9367 89.5252C97.5837 89.7926 97.1948 90.0396 96.7759 90.2637M78.107 82.3391C78.7948 85.9165 80.2456 87.7529 83.5239 89.7913C83.7964 89.9608 84.0746 90.1181 84.3575 90.2637M96.7759 90.2637C96.5656 86.6197 96.0988 85.0893 94.8413 84.4683C93.5838 83.8473 87.4898 83.8473 86.2323 84.2022C84.9748 84.557 83.4954 86.278 84.3575 90.2637M96.7759 90.2637C93.518 92.0068 88.4482 92.3685 84.3575 90.2637M89.9081 82.0729C91.6492 81.9842 93.4925 81.2845 94.2609 79.5889C95.3835 77.112 92.8262 73.8212 89.9081 73.9997C87.3886 74.1538 85.4555 76.3249 85.8454 78.613C86.1715 80.5265 87.3931 81.8068 89.8114 81.9842" stroke="white" stroke-width="2"/>
<path d="M30.5278 80.0239L41.0728 86.1207M41.0728 128.544L32.6612 137.689M32.6612 137.689C35.1162 140.684 36.4822 145.312 34.6131 149.293C32.1413 154.558 24.0446 155.831 20.4922 154.971C16.9397 154.111 13.8166 150.316 13.2097 145.852C12.5594 141.068 15.9628 135.7 19.3377 134.668C23.6006 133.463 26.8865 133.205 30.5278 135.7C31.2885 136.221 32.0128 136.898 32.6612 137.689Z" stroke="white" stroke-width="2"/>
<path d="M24.2032 145.565C21.5131 145.532 19.4645 142.304 20.5279 139.902C21.2849 138.192 22.8368 137.264 24.7411 137.463C27.0522 137.704 28.6606 139.844 28.3267 142.08C28.0203 144.132 26.3371 145.591 24.2032 145.565Z" stroke="white" stroke-width="2"/>
<path d="M17.7012 153.694C17.7012 153.694 17.7012 148.729 19.7199 147.873C21.7386 147.017 25.8722 146.761 28.5639 147.617C31.2556 148.473 30.1981 153.351 30.1981 153.351" stroke="white" stroke-width="2"/>
<path d="M44.5825 128.903C41.2147 127.367 39.6205 124.833 39.549 118.848C39.4592 111.319 50.4249 107.844 54.9191 110.243C59.4133 112.643 62.3795 116.863 61.8402 122.158C61.5469 125.037 59.1826 127.591 56.0876 129.047M44.5825 128.903C45.4517 129.3 46.4389 129.629 47.5487 129.935C50.382 130.715 53.4918 130.267 56.0876 129.047M44.5825 128.903C44.3762 124.96 45.2117 123.978 46.2903 123.399C47.3689 122.82 53.2113 122.82 54.1102 123.151C55.009 123.482 55.7281 124.226 56.0876 125.467C56.4471 126.708 56.0876 129.047 56.0876 129.047M47.9981 114.546C46.1862 115.985 45.917 118.56 47.5487 120.172C49.176 121.78 51.9729 121.726 53.6608 120.172C55.3486 118.618 55.4117 116.039 53.6608 114.546C52.0386 113.163 49.6722 113.216 47.9981 114.546Z" stroke="white" stroke-width="2"/>
<path d="M39.5483 116.721C39.5483 116.721 31.9037 114.605 27.2941 113.249M27.2941 113.249C27.5801 111.725 26.4561 105.582 22.6086 103.087C18.2355 100.25 13.1584 99.9749 9.00276 103.087C5.49464 105.714 4.63389 109.059 5.12824 113.249C5.50808 116.468 6.16542 118.045 8.82255 120.108C9.15139 120.364 9.51365 120.599 9.90381 120.813M27.2941 113.249C26.6534 116.664 25.3019 118.417 22.2482 120.362C21.9943 120.524 21.7352 120.674 21.4717 120.813M9.90381 120.813C10.0997 117.335 10.5345 115.874 11.7059 115.281C12.8773 114.689 18.5539 114.689 19.7252 115.027C20.8966 115.366 22.2747 117.009 21.4717 120.813M9.90381 120.813C12.9386 122.477 17.6612 122.822 21.4717 120.813M16.3013 112.995C14.6794 112.91 12.9624 112.242 12.2465 110.624C11.2008 108.259 13.583 105.118 16.3013 105.289C18.6481 105.436 20.4489 107.508 20.0857 109.692C19.7819 111.519 18.644 112.741 16.3914 112.91" stroke="white" stroke-width="2"/>
<path d="M52.2495 130.323L60.3785 150.137" stroke="white" stroke-width="2"/>
<path d="M53.279 101.475L52.2495 109.492M74.6044 106.91L62.9857 97.8066" stroke="white" stroke-width="2"/>
<path d="M147.766 153.694L152.847 139.468" stroke="white" stroke-width="2"/>
</svg>
