<svg width="349" height="210" viewBox="0 0 349 210" fill="none" xmlns="http://www.w3.org/2000/svg">
<path fill-rule="evenodd" clip-rule="evenodd" d="M162.534 100.129V113.342C162.647 113.354 162.737 113.374 162.827 113.372C164.849 113.329 166.874 113.346 168.891 113.219C170.599 113.111 172.273 112.728 173.84 111.942C177.074 110.321 178.152 106.309 176.133 103.358C175.181 101.968 173.799 101.271 172.295 100.818C169.103 99.8558 165.835 100.078 162.534 100.129M162.53 120.12V134.675C162.641 134.689 162.732 134.712 162.821 134.709C165.533 134.629 168.249 134.617 170.955 134.439C172.755 134.32 174.521 133.87 176.181 133.072C177.822 132.284 179.202 131.18 179.747 129.261C180.46 126.753 179.872 123.857 177.231 122.168C175.288 120.924 173.126 120.404 170.91 120.267C168.298 120.106 165.674 120.137 163.055 120.088C162.885 120.085 162.715 120.109 162.53 120.12M143.488 142.579C143.488 142.445 143.488 142.312 143.488 142.178C143.517 142.123 143.564 142.07 143.574 142.012C143.801 140.566 144.024 139.12 144.25 137.674C144.405 136.678 144.565 135.684 144.726 134.671C144.964 134.671 145.151 134.671 145.338 134.671C146.656 134.67 147.975 134.698 149.292 134.659C150.803 134.615 151.609 133.689 151.609 132.074C151.61 122.367 151.609 112.658 151.608 102.95C151.608 101.439 150.731 100.212 149.354 99.8306C148.978 99.7269 148.582 99.6604 148.194 99.654C146.626 99.6271 145.057 99.6305 143.488 99.6227V92.5136H156.095C156.095 92.2386 156.095 92.0409 156.095 91.8432C156.101 88.4288 156.106 85.014 156.112 81.5991H162.33C162.335 84.9509 162.34 88.3026 162.345 91.6544C162.346 91.8496 162.345 92.0453 162.345 92.2229H167.323V81.5991H173.635C173.628 81.6989 173.614 81.7983 173.614 81.8976C173.614 85.3169 173.614 88.7356 173.617 92.1549C173.617 92.267 173.638 92.3795 173.651 92.5062C173.997 92.5468 174.323 92.5831 174.649 92.6232C177.052 92.9182 179.424 93.3606 181.689 94.3054C184.084 95.3041 186.132 96.7735 187.461 99.1921C188.41 100.918 188.778 102.815 188.846 104.787C188.996 109.133 187.498 112.549 183.84 114.733C183.74 114.793 183.649 114.869 183.52 114.963C184.157 115.174 184.741 115.348 185.314 115.56C188.817 116.864 191.273 119.233 192.134 123.2C192.274 123.846 192.364 124.504 192.477 125.156V128.26C192.382 128.933 192.296 129.607 192.192 130.278C191.469 134.931 189.143 138.294 185.072 140.241C182.205 141.611 179.153 142.154 176.055 142.471C175.25 142.553 174.444 142.618 173.617 142.693C173.617 143.446 173.616 144.145 173.617 144.843C173.623 147.793 173.629 150.743 173.635 153.693H167.323V142.832H162.345C162.345 143.041 162.346 143.238 162.345 143.435C162.34 146.854 162.335 150.274 162.33 153.693H156.112V142.662C155.866 142.662 155.696 142.663 155.527 142.662C151.717 142.647 147.906 142.631 144.096 142.613C143.893 142.613 143.69 142.591 143.488 142.579" fill="white"/>
<g opacity="0.8">
<path d="M142.579 76.5701C142.579 76.5701 138.378 89.6915 136.505 98.0991M136.505 98.0991C142.579 99.8809 148.704 109.146 147.534 117.401C146.442 125.105 140.821 131.655 134.428 133.14C128.034 134.624 113.463 132.427 109.014 123.34C104.762 114.654 109.813 104.187 116.367 99.8809C122.92 95.575 128.833 96.0205 136.505 98.0991Z" stroke="white" stroke-width="2"/>
<path d="M143.488 128.117L155.222 141.947" stroke="white" stroke-width="2"/>
<path d="M161.089 63.9976L184.894 85.2609M195.413 112.323L181.019 142.147M187.385 154.85L233.058 142.147M221.709 89.6792L250.773 71.4535M218.941 105.143L238.594 123.921M183.51 168.105L203.994 183.017" stroke="white" stroke-width="2"/>
<path d="M123.372 132.727L109.123 175.473" stroke="white" stroke-width="2"/>
<path d="M128.162 116.801C132.878 116.748 136.468 111.422 134.604 107.459C133.278 104.639 130.557 103.107 127.219 103.435C123.168 103.834 120.349 107.364 120.934 111.053C121.472 114.439 124.422 116.844 128.162 116.801Z" stroke="white" stroke-width="2"/>
<path d="M138.459 131.051C138.459 131.051 138.459 122.861 134.995 121.449C131.532 120.037 124.44 119.613 119.822 121.025C115.204 122.437 117.018 130.486 117.018 130.486" stroke="white" stroke-width="2"/>
<path d="M91.6818 87.4673C97.7429 84.7478 100.612 80.261 100.741 69.6657C100.902 56.336 81.1672 50.1839 73.0791 54.4316C64.991 58.6793 59.6528 66.1504 60.6233 75.525C61.1512 80.6235 65.4061 85.1447 70.9762 87.7214M91.6818 87.4673C90.1176 88.1691 88.3408 88.7532 86.3437 89.2942C81.2445 90.6756 75.6478 89.8824 70.9762 87.7214M91.6818 87.4673C92.0532 80.4856 90.5495 78.7478 88.6083 77.7224C86.6672 76.6971 76.1526 76.6971 74.535 77.283C72.9173 77.8689 71.6232 79.1872 70.9762 81.3845C70.3291 83.5817 70.9762 87.7214 70.9762 87.7214M85.5348 62.0489C88.7957 64.5972 89.2802 69.1562 86.3437 72.0096C83.4151 74.8555 78.3813 74.7602 75.3438 72.0096C72.3062 69.2591 72.1926 64.6926 75.3438 62.0489C78.2632 59.5996 82.5219 59.6943 85.5348 62.0489Z" stroke="white" stroke-width="2"/>
<path d="M33.8485 66.5129C39.9095 63.7935 42.7787 59.3067 42.9072 48.7114C43.069 35.3817 23.3339 29.2295 15.2458 33.4773C7.15763 37.725 1.81941 45.196 2.79 54.5706C3.31786 59.6691 7.57272 64.1904 13.1428 66.767M33.8485 66.5129C32.2843 67.2147 30.5075 67.7989 28.5103 68.3399C23.4112 69.7212 17.8144 68.9281 13.1428 66.767M33.8485 66.5129C34.2199 59.5312 32.7162 57.7935 30.775 56.7681C28.8338 55.7427 18.3192 55.7427 16.7016 56.3286C15.084 56.9146 13.7899 58.2329 13.1428 60.4301C12.4958 62.6274 13.1428 66.767 13.1428 66.767M27.7015 41.0945C30.9624 43.6429 31.4468 48.2018 28.5103 51.0553C25.5817 53.9011 20.548 53.8059 17.5104 51.0553C14.4729 48.3047 14.3593 43.7382 17.5104 41.0945C20.4299 38.6453 24.6885 38.7399 27.7015 41.0945Z" stroke="white" stroke-width="2"/>
<path d="M212.377 110.879C218.439 108.097 221.308 103.509 221.436 92.6725C221.598 79.0399 201.863 72.7479 193.775 77.0922C185.687 81.4365 180.348 89.0773 181.319 98.665C181.847 103.879 186.102 108.503 191.672 111.139M212.377 110.879C210.813 111.596 209.036 112.194 207.039 112.747C201.94 114.16 196.343 113.349 191.672 111.139M212.377 110.879C212.749 103.738 211.245 101.961 209.304 100.912C207.363 99.8637 196.848 99.8637 195.231 100.463C193.613 101.062 192.319 102.41 191.672 104.658C191.025 106.905 191.672 111.139 191.672 111.139M206.23 84.8826C209.491 87.4889 209.976 92.1514 207.039 95.0697C204.111 97.9802 199.077 97.8828 196.039 95.0697C193.002 92.2566 192.888 87.5864 196.039 84.8826C198.959 82.3777 203.218 82.4745 206.23 84.8826Z" stroke="white" stroke-width="2"/>
<path d="M278.592 76.571C284.654 73.8516 287.523 69.3648 287.651 58.7695C287.813 45.4398 268.078 39.2876 259.99 43.5354C251.902 47.7831 246.563 55.2541 247.534 64.6287C248.062 69.7272 252.317 74.2485 257.887 76.8251M278.592 76.571C277.028 77.2729 275.251 77.857 273.254 78.398C268.155 79.7793 262.558 78.9862 257.887 76.8251M278.592 76.571C278.964 69.5893 277.46 67.8516 275.519 66.8262C273.578 65.8008 263.063 65.8008 261.446 66.3867C259.828 66.9727 258.534 68.291 257.887 70.4882C257.24 72.6855 257.887 76.8251 257.887 76.8251M272.445 51.1526C275.706 53.701 276.191 58.2599 273.254 61.1134C270.326 63.9592 265.292 63.864 262.254 61.1134C259.217 58.3628 259.103 53.7963 262.254 51.1526C265.174 48.7034 269.432 48.798 272.445 51.1526Z" stroke="white" stroke-width="2"/>
<path d="M223.274 35.501C229.335 32.7815 232.204 28.2947 232.332 17.6994C232.494 4.3697 212.759 -1.78243 204.671 2.4653C196.583 6.71303 191.245 14.1841 192.215 23.5587C192.743 28.6572 196.998 33.1784 202.568 35.7551M223.274 35.501C221.709 36.2028 219.933 36.7869 217.935 37.3279C212.836 38.7093 207.24 37.9161 202.568 35.7551M223.274 35.501C223.645 28.5193 222.141 26.7815 220.2 25.7561C218.259 24.7307 207.744 24.7307 206.127 25.3167C204.509 25.9026 203.215 27.2209 202.568 29.4182C201.921 31.6154 202.568 35.7551 202.568 35.7551M217.127 10.0826C220.387 12.6309 220.872 17.1898 217.935 20.0433C215.007 22.8891 209.973 22.7939 206.936 20.0433C203.898 17.2927 203.784 12.7263 206.936 10.0826C209.855 7.63329 214.114 7.72798 217.127 10.0826Z" stroke="white" stroke-width="2"/>
<path d="M338.94 115.127C345.001 112.407 347.87 107.92 347.999 97.3251C348.161 83.9954 328.426 77.8433 320.338 82.091C312.249 86.3388 306.911 93.8098 307.882 103.184C308.41 108.283 312.665 112.804 318.235 115.381M338.94 115.127C337.376 115.829 335.599 116.413 333.602 116.954C328.503 118.335 322.906 117.542 318.235 115.381M338.94 115.127C339.312 108.145 337.808 106.407 335.867 105.382C333.926 104.356 323.411 104.356 321.793 104.942C320.176 105.528 318.882 106.847 318.235 109.044C317.588 111.241 318.235 115.381 318.235 115.381M332.793 89.7083C336.054 92.2567 336.539 96.8156 333.602 99.6691C330.674 102.515 325.64 102.42 322.602 99.6691C319.565 96.9185 319.451 92.352 322.602 89.7083C325.522 87.259 329.78 87.3537 332.793 89.7083Z" stroke="white" stroke-width="2"/>
<path d="M323.015 180.503C329.076 177.784 331.945 173.297 332.074 162.702C332.236 149.372 312.501 143.22 304.412 147.468C296.324 151.715 290.986 159.187 291.957 168.561C292.485 173.66 296.739 178.181 302.309 180.758M323.015 180.503C321.451 181.205 319.674 181.789 317.677 182.33C312.578 183.712 306.981 182.919 302.309 180.758M323.015 180.503C323.387 173.522 321.883 171.784 319.942 170.759C318 169.733 307.486 169.733 305.868 170.319C304.251 170.905 302.957 172.223 302.309 174.421C301.662 176.618 302.309 180.758 302.309 180.758M316.868 155.085C320.129 157.633 320.613 162.192 317.677 165.046C314.748 167.892 309.715 167.796 306.677 165.046C303.64 162.295 303.526 157.729 306.677 155.085C309.597 152.636 313.855 152.73 316.868 155.085Z" stroke="white" stroke-width="2"/>
<path d="M333.911 48.0735C339.972 45.354 342.841 40.8672 342.97 30.2719C343.132 16.9422 323.397 10.7901 315.309 15.0378C307.22 19.2855 301.882 26.7566 302.853 36.1312C303.381 41.2297 307.636 45.7509 313.206 48.3276M333.911 48.0735C332.347 48.7753 330.57 49.3594 328.573 49.9004C323.474 51.2818 317.877 50.4886 313.206 48.3276M333.911 48.0735C334.283 41.0918 332.779 39.354 330.838 38.3286C328.897 37.3033 318.382 37.3033 316.764 37.8892C315.147 38.4751 313.853 39.7934 313.206 41.9907C312.559 44.1879 313.206 48.3276 313.206 48.3276M327.764 22.6551C331.025 25.2034 331.51 29.7624 328.573 32.6158C325.645 35.4617 320.611 35.3664 317.573 32.6158C314.536 29.8653 314.422 25.2988 317.573 22.6551C320.493 20.2058 324.751 20.3005 327.764 22.6551Z" stroke="white" stroke-width="2"/>
<path d="M303.996 40.948L286.395 52.6823M285.138 71.1219L311.54 89.1424M272.146 130.632L310.702 110.097M267.955 149.909L292.681 160.386" stroke="white" stroke-width="2"/>
<path d="M230.657 28.7947L251.611 50.5869M210.122 37.5954L204.255 75.7319" stroke="white" stroke-width="2"/>
<path d="M263.505 152.787C269.567 150.006 272.436 145.417 272.564 134.581C272.726 120.948 252.991 114.656 244.903 119C236.815 123.345 231.476 130.986 232.447 140.573C232.975 145.788 237.23 150.412 242.8 153.047M263.505 152.787C261.941 153.505 260.164 154.102 258.167 154.655C253.068 156.068 247.471 155.257 242.8 153.047M263.505 152.787C263.877 145.647 262.373 143.869 260.432 142.821C258.491 141.772 247.976 141.772 246.359 142.371C244.741 142.97 243.447 144.319 242.8 146.566C242.153 148.813 242.8 153.047 242.8 153.047M257.358 126.791C260.619 129.397 261.104 134.06 258.167 136.978C255.239 139.888 250.205 139.791 247.167 136.978C244.13 134.165 244.016 129.495 247.167 126.791C250.087 124.286 254.346 124.383 257.358 126.791Z" stroke="white" stroke-width="2"/>
<path d="M232.493 206.429C238.554 203.648 241.424 199.059 241.552 188.223C241.714 174.591 221.979 168.299 213.891 172.643C205.803 176.987 200.464 184.628 201.435 194.216C201.963 199.43 206.218 204.054 211.788 206.689M232.493 206.429C230.929 207.147 229.152 207.745 227.155 208.298C222.056 209.711 216.459 208.899 211.788 206.689M232.493 206.429C232.865 199.289 231.361 197.512 229.42 196.463C227.479 195.414 216.964 195.414 215.347 196.014C213.729 196.613 212.435 197.961 211.788 200.208C211.141 202.456 211.788 206.689 211.788 206.689M226.346 180.433C229.607 183.04 230.092 187.702 227.155 190.621C224.227 193.531 219.193 193.434 216.155 190.621C213.118 187.807 213.004 183.137 216.155 180.433C219.075 177.928 223.333 178.025 226.346 180.433Z" stroke="white" stroke-width="2"/>
<path d="M178.202 172.903C184.136 170.122 186.946 165.533 187.072 154.697C187.23 141.064 167.906 134.772 159.986 139.116C152.067 143.461 146.84 151.101 147.79 160.689C148.307 165.903 152.473 170.528 157.927 173.163M178.202 172.903C176.67 173.621 174.93 174.218 172.975 174.771C167.982 176.184 162.502 175.373 157.927 173.163M178.202 172.903C178.565 165.762 177.093 163.985 175.192 162.937C173.291 161.888 162.996 161.888 161.412 162.487C159.828 163.086 158.561 164.435 157.927 166.682C157.294 168.929 157.927 173.163 157.927 173.163M172.183 146.907C175.376 149.513 175.85 154.176 172.975 157.094C170.107 160.004 165.178 159.907 162.204 157.094C159.23 154.281 159.118 149.611 162.204 146.907C165.062 144.402 169.232 144.499 172.183 146.907Z" stroke="white" stroke-width="2"/>
<path d="M107.796 206.429C113.73 203.648 116.54 199.059 116.666 188.223C116.824 174.591 97.5001 168.299 89.5805 172.643C81.6609 176.987 76.4339 184.628 77.3842 194.216C77.9011 199.43 82.0673 204.054 87.5214 206.689M107.796 206.429C106.264 207.147 104.524 207.745 102.569 208.298C97.5758 209.711 92.0957 208.899 87.5214 206.689M107.796 206.429C108.159 199.289 106.687 197.512 104.786 196.463C102.886 195.414 92.59 195.414 91.006 196.014C89.4221 196.613 88.155 197.961 87.5214 200.208C86.8878 202.456 87.5214 206.689 87.5214 206.689M101.777 180.433C104.97 183.04 105.444 187.702 102.569 190.621C99.7011 193.531 94.7723 193.434 91.798 190.621C88.8238 187.807 88.7125 183.137 91.798 180.433C94.6567 177.928 98.8266 178.025 101.777 180.433Z" stroke="white" stroke-width="2"/>
<path d="M99.9034 65.4352C99.9034 65.4352 113.442 61.778 121.606 59.4346M121.606 59.4346C121.099 56.8001 123.09 46.1845 129.904 41.8716C137.649 36.9694 146.641 36.4934 154 41.8716C160.213 46.4117 161.738 52.1931 160.862 59.4346C160.189 64.9986 159.025 67.7243 154.319 71.2896C153.737 71.7308 153.096 72.1382 152.405 72.5079M121.606 59.4346C122.741 65.3362 125.134 68.3658 130.542 71.7286C130.992 72.0082 131.451 72.2678 131.918 72.5079M152.405 72.5079C152.058 66.4963 151.287 63.9717 149.213 62.9472C147.138 61.9226 137.085 61.9226 135.011 62.5081C132.936 63.0935 130.495 65.9326 131.918 72.5079M152.405 72.5079C147.03 75.3836 138.666 75.9803 131.918 72.5079M141.075 58.9955C143.947 58.8491 146.988 57.6947 148.256 54.8975C150.107 50.8113 145.889 45.3824 141.075 45.6769C136.918 45.9312 133.729 49.5128 134.372 53.2875C134.91 56.4443 136.925 58.5564 140.915 58.8491" stroke="white" stroke-width="2"/>
<path d="M43.1134 55.616L60.5097 65.6739M60.5097 135.661L46.6329 150.748M46.6329 150.748C50.683 155.688 52.9366 163.322 49.853 169.89C45.7753 178.576 32.418 180.677 26.5575 179.257C20.6969 177.838 15.5446 171.577 14.5434 164.213C13.4706 156.322 19.0853 147.466 24.6528 145.763C31.6855 143.776 37.1064 143.35 43.1134 147.466C44.3684 148.326 45.5633 149.443 46.6329 150.748Z" stroke="white" stroke-width="2"/>
<path d="M32.6805 163.738C28.2425 163.685 24.863 158.359 26.6172 154.396C27.8661 151.576 30.4264 150.044 33.5678 150.372C37.3806 150.771 40.0339 154.301 39.4832 157.99C38.9776 161.376 36.2008 163.781 32.6805 163.738Z" stroke="white" stroke-width="2"/>
<path d="M21.9541 177.15C21.9541 177.15 21.9541 168.96 25.2844 167.548C28.6147 166.136 35.434 165.712 39.8745 167.124C44.315 168.536 42.5705 176.585 42.5705 176.585" stroke="white" stroke-width="2"/>
<path d="M66.2999 136.252C60.7439 133.718 58.1139 129.537 57.9961 119.664C57.8478 107.243 75.9383 101.511 83.3524 105.469C90.7665 109.427 95.6599 116.389 94.7702 125.124C94.2863 129.875 90.386 134.088 85.2801 136.489M66.2999 136.252C67.7338 136.906 69.3625 137.45 71.1932 137.954C75.8674 139.242 80.9978 138.503 85.2801 136.489M66.2999 136.252C65.9595 129.746 67.3379 128.127 69.1173 127.172C70.8967 126.216 80.5351 126.216 82.0179 126.762C83.5007 127.308 84.687 128.537 85.2801 130.584C85.8732 132.631 85.2801 136.489 85.2801 136.489M71.9347 112.567C68.9455 114.941 68.5014 119.189 71.1932 121.848C73.8778 124.5 78.4921 124.411 81.2765 121.848C84.0609 119.285 84.165 115.03 81.2765 112.567C78.6003 110.284 74.6965 110.373 71.9347 112.567Z" stroke="white" stroke-width="2"/>
<path d="M57.9952 116.155C57.9952 116.155 45.3837 112.664 37.7791 110.427M37.7791 110.427C38.2509 107.913 36.3966 97.7794 30.0494 93.6626C22.835 88.9832 14.4591 88.5289 7.60351 93.6626C1.81611 97.9964 0.396105 103.515 1.21165 110.427C1.83828 115.738 2.9227 118.34 7.30622 121.743C7.84871 122.165 8.44634 122.553 9.08999 122.906M37.7791 110.427C36.7221 116.061 34.4926 118.953 29.4548 122.162C29.0359 122.429 28.6085 122.677 28.1738 122.906M9.08999 122.906C9.41316 117.168 10.1305 114.758 12.063 113.78C13.9954 112.802 23.3602 112.802 25.2926 113.361C27.225 113.92 29.4985 116.63 28.1738 122.906M9.08999 122.906C14.0966 125.651 21.8875 126.221 28.1738 122.906M19.644 110.008C16.9683 109.868 14.1358 108.766 12.9548 106.096C11.2298 102.196 15.1596 97.0138 19.644 97.2949C23.5157 97.5376 26.4865 100.956 25.8872 104.56C25.3861 107.573 23.5088 109.589 19.7926 109.868" stroke="white" stroke-width="2"/>
<path d="M78.9493 138.594L92.3599 171.283" stroke="white" stroke-width="2"/>
<path d="M80.6477 91.004L78.9493 104.229M115.829 99.9704L96.661 84.9517" stroke="white" stroke-width="2"/>
<path d="M236.524 177.15L244.906 153.681" stroke="white" stroke-width="2"/>
</g>
</svg>
