<svg width="220" height="219" viewBox="0 0 220 219" fill="none" xmlns="http://www.w3.org/2000/svg">
<path d="M187.46 105.53L160.428 64.4521L109.544 98.3744L120.94 116.661C129.784 114.73 133.8 115.381 136.576 124.611C143.029 120.972 149.562 122.756 150.357 130.442L187.46 105.53Z" stroke="white" stroke-width="4"/>
<path d="M122.795 130.442C121.084 136.382 118.716 138.254 112.725 139.982C112.092 140.136 112.04 139.964 112.195 139.452C113.784 134.246 115.915 132.074 122 129.646C122.822 129.407 123.074 129.497 122.795 130.442Z" stroke="white" stroke-width="4"/>
<path d="M104.509 133.622C107.59 138.517 107.942 141.455 105.569 147.138C105.266 147.691 105.049 147.755 104.509 147.138C101.093 143.013 100.701 140.08 102.919 133.622C103.506 132.669 103.848 132.701 104.509 133.622Z" stroke="white" stroke-width="4"/>
<path d="M94.4384 154.823C99.9022 151.471 103.047 151.662 108.749 154.823C109.018 155.216 108.911 155.357 108.749 155.618C103.234 158.878 99.9024 158.818 94.4384 155.618C94.1815 155.308 94.2198 155.134 94.4384 154.823Z" stroke="white" stroke-width="4"/>
<path d="M123.855 145.018C118.154 144.157 115.476 145.179 112.195 149.788C111.737 150.584 111.727 150.923 112.725 151.113C118.656 151.692 121.306 150.711 124.385 145.813C124.41 145.476 124.403 145.288 123.855 145.018Z" stroke="white" stroke-width="4"/>
<path d="M157.247 59.947V35.5654C156.992 33.7215 156.654 32.5136 155.822 31.5378C154.735 30.2636 152.924 30 151.25 30H81.1873M81.1873 30V55.1867C81.1873 56.4065 80.9913 57.6296 80.476 58.7351C79.5688 60.6818 78.5942 61.8434 76.9415 62.7122C75.9308 63.2435 74.7733 63.3922 73.6315 63.3922H47M81.1873 30L47 63.3922M47 63.3922V173.136C47 173.823 47.0551 174.514 47.2479 175.173C47.7137 176.766 48.421 177.793 49.6738 178.727C50.9664 179.691 52.6125 180 54.2251 180H152.742C155.218 179.654 156.32 178.793 157.133 176.481C157.421 175.663 157.512 174.79 157.512 173.923V134.417" stroke="white" stroke-width="5"/>
<path fill-rule="evenodd" clip-rule="evenodd" d="M150.385 92.9805V97.449C150.423 97.4532 150.453 97.4599 150.483 97.4593C151.161 97.4447 151.84 97.4505 152.517 97.4075C153.09 97.3711 153.651 97.2415 154.177 96.9756C155.261 96.4272 155.623 95.0706 154.946 94.0724C154.627 93.6023 154.163 93.3668 153.659 93.2134C152.588 92.8881 151.492 92.9634 150.385 92.9805M150.383 99.7415V104.664C150.42 104.668 150.451 104.676 150.481 104.675C151.391 104.648 152.301 104.644 153.209 104.584C153.813 104.543 154.405 104.392 154.962 104.122C155.512 103.855 155.975 103.482 156.158 102.833C156.397 101.985 156.2 101.005 155.314 100.434C154.662 100.013 153.937 99.8374 153.194 99.7911C152.318 99.7365 151.438 99.7471 150.559 99.7305C150.502 99.7295 150.445 99.7375 150.383 99.7415M143.997 107.337C143.997 107.291 143.997 107.246 143.997 107.201C144.006 107.182 144.022 107.165 144.025 107.145C144.102 106.656 144.176 106.167 144.252 105.678C144.304 105.341 144.358 105.005 144.412 104.662C144.492 104.662 144.554 104.662 144.617 104.662C145.059 104.662 145.502 104.671 145.943 104.658C146.45 104.643 146.721 104.33 146.721 103.784C146.721 100.501 146.72 97.2178 146.72 93.9347C146.72 93.4235 146.426 93.0087 145.964 92.8796C145.838 92.8445 145.705 92.822 145.575 92.8199C145.049 92.8108 144.523 92.8119 143.997 92.8093V90.405H148.225C148.225 90.312 148.225 90.2452 148.225 90.1783C148.227 89.0236 148.229 87.8687 148.231 86.7139H150.316C150.318 87.8474 150.32 88.9809 150.321 90.1145C150.322 90.1805 150.321 90.2467 150.321 90.3067H151.991V86.7139H154.108C154.106 86.7476 154.101 86.7812 154.101 86.8148C154.101 87.9712 154.101 89.1274 154.102 90.2837C154.102 90.3216 154.109 90.3597 154.113 90.4026C154.229 90.4163 154.339 90.4285 154.448 90.4421C155.254 90.5419 156.05 90.6915 156.809 91.011C157.613 91.3488 158.299 91.8457 158.745 92.6637C159.064 93.2475 159.187 93.8889 159.21 94.5559C159.26 96.0257 158.758 97.1807 157.531 97.9196C157.497 97.9396 157.467 97.9656 157.423 97.9972C157.637 98.0685 157.833 98.1273 158.025 98.1992C159.2 98.6401 160.024 99.4412 160.313 100.783C160.36 101.001 160.39 101.224 160.428 101.444V102.494C160.396 102.722 160.367 102.95 160.332 103.177C160.09 104.75 159.309 105.888 157.944 106.546C156.982 107.009 155.959 107.193 154.92 107.3C154.65 107.328 154.379 107.35 154.102 107.375C154.102 107.63 154.101 107.866 154.102 108.102C154.104 109.1 154.106 110.098 154.108 111.095H151.991V107.422H150.321C150.321 107.493 150.322 107.56 150.321 107.626C150.32 108.783 150.318 109.939 150.316 111.095H148.231V107.365C148.148 107.365 148.091 107.365 148.034 107.365C146.757 107.36 145.478 107.354 144.2 107.348C144.132 107.348 144.065 107.341 143.997 107.337" fill="white"/>
</svg>
