<svg width="212" height="225" viewBox="0 0 212 225" fill="none" xmlns="http://www.w3.org/2000/svg">
<path d="M209 113.311L169.162 52.7734L94.1738 102.766L110.968 129.715C124.002 126.869 129.92 127.829 134.011 141.432C143.522 136.069 153.149 138.698 154.321 150.024L209 113.311Z" stroke="white" stroke-width="3"/>
<path d="M113.702 150.024C111.18 158.778 107.69 161.537 98.8606 164.085C97.929 164.311 97.8519 164.058 98.0795 163.303C100.422 155.631 103.562 152.431 112.53 148.853C113.742 148.499 114.114 148.632 113.702 150.024Z" stroke="white" stroke-width="3"/>
<path d="M86.7531 154.711C91.2942 161.926 91.8128 166.255 88.3153 174.63C87.8685 175.445 87.5488 175.54 86.7531 174.63C81.7188 168.551 81.1404 164.229 84.4097 154.711C85.2755 153.307 85.7796 153.354 86.7531 154.711Z" stroke="white" stroke-width="3"/>
<path d="M71.9116 185.956C79.9638 181.016 84.5981 181.297 93.0021 185.956C93.3982 186.536 93.2397 186.743 93.0021 187.128C84.8733 191.932 79.9641 191.844 71.9116 187.128C71.533 186.67 71.5895 186.414 71.9116 185.956Z" stroke="white" stroke-width="3"/>
<path d="M115.264 171.505C106.863 170.238 102.915 171.743 98.0795 178.536C97.4048 179.709 97.3905 180.209 98.8606 180.488C107.602 181.341 111.508 179.896 116.045 172.677C116.081 172.181 116.072 171.904 115.264 171.505Z" stroke="white" stroke-width="3"/>
<path d="M164.475 46.1339V10.2019C164.021 6.92449 163.391 5.01034 161.518 3.41548C160.243 2.32979 158.52 2 156.845 2H52.3829M52.3829 2V39.9926C52.3829 41.2124 52.1739 42.4299 51.6916 43.5503C50.1185 47.2046 48.519 49.1408 45.3918 50.5683C44.3531 51.0425 43.2069 51.2112 42.0651 51.2112H2M52.3829 2L2 51.2112M2 51.2112V213.434C2 214.121 2.06174 214.811 2.23522 215.475C3.0224 218.492 4.30112 220.185 6.89802 221.843C8.25731 222.71 9.87236 223.06 11.4849 223.06H157.836C161.688 222.521 163.283 221.138 164.503 217.286C164.765 216.459 164.866 215.59 164.866 214.723V155.883" stroke="white" stroke-width="3"/>
<path fill-rule="evenodd" clip-rule="evenodd" d="M154.361 94.8164V101.402C154.417 101.408 154.461 101.418 154.506 101.417C155.505 101.396 156.506 101.404 157.503 101.341C158.348 101.287 159.175 101.096 159.95 100.704C161.548 99.8959 162.081 97.8967 161.083 96.4257C160.613 95.7328 159.929 95.3858 159.186 95.1597C157.608 94.6803 155.993 94.7912 154.361 94.8164M154.359 104.78V112.034C154.414 112.041 154.459 112.053 154.503 112.051C155.844 112.011 157.186 112.005 158.524 111.916C159.413 111.857 160.286 111.633 161.107 111.236C161.918 110.842 162.6 110.292 162.869 109.336C163.222 108.086 162.931 106.643 161.626 105.801C160.665 105.181 159.596 104.922 158.501 104.853C157.21 104.773 155.913 104.789 154.619 104.764C154.535 104.763 154.451 104.774 154.359 104.78M144.947 115.974C144.947 115.907 144.947 115.84 144.947 115.774C144.961 115.746 144.984 115.72 144.989 115.691C145.101 114.97 145.212 114.25 145.323 113.529C145.4 113.033 145.479 112.537 145.559 112.032C145.676 112.032 145.769 112.032 145.861 112.032C146.513 112.032 147.165 112.045 147.816 112.026C148.563 112.004 148.961 111.543 148.961 110.738C148.961 105.9 148.961 101.061 148.96 96.2226C148.96 95.4693 148.527 94.8579 147.847 94.6677C147.661 94.616 147.465 94.5828 147.273 94.5797C146.498 94.5663 145.722 94.568 144.947 94.5641V91.0209H151.178C151.178 90.8838 151.178 90.7853 151.178 90.6867C151.181 88.985 151.184 87.283 151.187 85.5811H154.26C154.263 87.2516 154.265 88.9221 154.268 90.5926C154.268 90.6899 154.268 90.7875 154.268 90.876H156.728V85.5811H159.848C159.845 85.6308 159.838 85.6803 159.838 85.7298C159.838 87.434 159.838 89.1379 159.839 90.8421C159.839 90.8979 159.85 90.954 159.856 91.0172C160.027 91.0374 160.188 91.0555 160.349 91.0755C161.537 91.2225 162.71 91.443 163.829 91.9139C165.013 92.4116 166.025 93.144 166.683 94.3495C167.152 95.2098 167.333 96.1551 167.367 97.1381C167.441 99.3042 166.7 101.006 164.892 102.095C164.843 102.125 164.798 102.163 164.734 102.21C165.049 102.315 165.338 102.401 165.621 102.507C167.352 103.157 168.567 104.338 168.992 106.315C169.061 106.637 169.106 106.965 169.162 107.29V108.837C169.115 109.172 169.072 109.508 169.021 109.843C168.664 112.162 167.514 113.838 165.501 114.808C164.084 115.491 162.576 115.762 161.044 115.92C160.646 115.961 160.248 115.993 159.839 116.03C159.839 116.406 159.839 116.754 159.839 117.102C159.842 118.572 159.845 120.043 159.848 121.513H156.728V116.1H154.268C154.268 116.204 154.268 116.302 154.268 116.4C154.265 118.104 154.263 119.809 154.26 121.513H151.187V116.015C151.065 116.015 150.981 116.015 150.897 116.015C149.014 116.007 147.131 116 145.247 115.991C145.147 115.99 145.047 115.979 144.947 115.974" fill="white"/>
</svg>
