<svg width="385" height="360" viewBox="0 0 385 360" fill="none" xmlns="http://www.w3.org/2000/svg">
<path d="M134.322 220.42L149.067 237.93L112.205 273.41L32.9506 196.188M134.322 220.42L191.919 162.362C200.674 143.931 188.233 115.363 155.518 125.5L96.9988 183.097M134.322 220.42L106.675 246.685C80.8098 247.366 71.5098 243.202 70.7344 212.587L96.9988 183.097M96.9988 183.097L70.7344 157.843M57.7132 151.764L61.0581 148.539L70.7344 157.843M57.7132 151.764L32.9506 127.343L17.9753 142.088M57.7132 151.764L42.4222 166.509M27.1311 181.254L22.3527 185.862L32.9506 196.188M27.1311 181.254L3 156.833L17.9753 142.088M27.1311 181.254L42.4222 166.509M42.4222 166.509L17.9753 142.088M33.8722 148.539L38.9407 143.931M24.1958 158.676L19.588 163.284M32.9506 196.188L70.7344 157.843M106.675 209.362C100.237 203.559 90.0028 204.461 84.5578 211.205C79.3381 217.669 80.1012 226.983 86.4009 232.401C92.8366 237.935 102.595 237.054 108.058 230.558C113.396 224.208 112.836 214.916 106.675 209.362Z" stroke="white" stroke-width="3"/>
<path d="M368 286.1C368 271.924 368 249.8 368 249.8C365.284 245.458 363.255 243.428 356.914 242H192.01C184.717 243.355 182.563 245.373 180 249.8V311.9C182.873 317.743 185.441 319.007 190.624 320C190.624 320 187.461 320 195.5 320M302.5 320C272.02 320 236.236 320 213.5 320M195.5 320V341H213.5V320M195.5 320C191 320 209.793 320 213.5 320" stroke="white" stroke-width="3"/>
<path d="M202.5 347.5H198.5V341.5H210.5V347.5H206.5M202.5 347.5V357H206.5V347.5M202.5 347.5H206.5" stroke="white"/>
<path d="M249.977 64.2164C246.501 63.1476 240.595 66.316 240.301 69.2849V104.765C240.915 108.594 242.15 110.375 246.752 112.598H312.182C315.768 111.206 317.106 109.915 318.173 106.608V69.2849C318.322 67.3573 312.463 63.7476 308.496 64.2164M249.977 64.2164C248.064 81.3102 262.267 97.0663 279.467 96.9317C296.547 96.798 310.396 81.191 308.496 64.2164M249.977 64.2164C252.915 50.6327 262.855 41.8932 276.702 40.7167C292.087 39.4096 305.232 49.1257 308.496 64.2164M308.496 190.47H249.977L220.948 144.392V45.3245C224.112 37.0989 227.415 33.6035 237.075 30.1188H320.016C329.335 32.7432 332.759 36.2052 336.143 45.3245V144.392L308.496 190.47ZM262.418 71.5888L267.487 64.2164L276.702 70.6673L288.683 56.3831L295.594 62.3733L278.546 82.6475L262.418 71.5888Z" stroke="white" stroke-width="3"/>
<path d="M244.908 138.862C237.997 138.862 237.997 127.343 244.908 127.343H266.565C273.477 127.343 273.938 138.862 266.565 138.862H244.908Z" stroke="white" stroke-width="3"/>
<path d="M312.643 127.343H290.986C284.075 127.343 284.075 138.862 290.986 138.862H312.643C319.555 138.862 320.016 127.343 312.643 127.343Z" stroke="white" stroke-width="3"/>
<path d="M374.848 231.94C389.429 171.662 386.178 138.122 350.888 78.9614M273.938 17.2171C222.331 -7.66499 148.145 -3.51809 96.0773 40.7168M34.333 225.489C59.6758 335.615 182.243 378.468 263.34 348.056" stroke="white" stroke-width="3"/>
<circle cx="97.4592" cy="96.9317" r="40.4308" stroke="white" stroke-width="3"/>
<path fill-rule="evenodd" clip-rule="evenodd" d="M94.9388 87.6661V95.1875C95.003 95.1944 95.0544 95.2059 95.1055 95.2047C96.2564 95.1802 97.409 95.19 98.5573 95.1176C99.5298 95.0563 100.483 94.8382 101.375 94.3906C103.215 93.4676 103.829 91.1842 102.68 89.5041C102.138 88.7128 101.351 88.3165 100.495 88.0583C98.6781 87.5107 96.818 87.6374 94.9388 87.6661M94.9363 99.0461V107.331C94.9992 107.339 95.0508 107.352 95.1019 107.35C96.6457 107.305 98.1916 107.298 99.732 107.196C100.757 107.129 101.762 106.873 102.707 106.419C103.641 105.97 104.426 105.341 104.737 104.249C105.142 102.822 104.808 101.173 103.305 100.211C102.198 99.5037 100.968 99.2077 99.7063 99.1297C98.2191 99.0378 96.7259 99.0556 95.235 99.0277C95.1383 99.0261 95.0416 99.0394 94.9363 99.0461M84.0972 111.83C84.0972 111.754 84.0972 111.678 84.0972 111.602C84.1139 111.57 84.1407 111.54 84.1459 111.507C84.2754 110.684 84.4022 109.861 84.5309 109.038C84.6195 108.471 84.7104 107.905 84.8018 107.329C84.9376 107.329 85.044 107.329 85.1501 107.329C85.9007 107.328 86.6515 107.344 87.4012 107.322C88.2613 107.297 88.7202 106.77 88.7202 105.85C88.7204 100.324 88.7199 94.7981 88.7191 89.2721C88.7191 88.4117 88.2204 87.7134 87.4366 87.4962C87.2225 87.4371 86.9971 87.3992 86.7762 87.3956C85.8834 87.3803 84.9903 87.3822 84.0972 87.3778V83.331H91.2737C91.2737 83.1745 91.2734 83.062 91.2737 82.9495C91.2768 81.0059 91.28 79.062 91.2831 77.1182H94.8228C94.8256 79.0261 94.8285 80.934 94.8314 82.8419C94.8317 82.9531 94.8314 83.0645 94.8314 83.1656H97.6648V77.1182H101.258C101.254 77.175 101.246 77.2315 101.246 77.2881C101.246 79.2344 101.246 81.1805 101.247 83.1269C101.247 83.1907 101.26 83.2547 101.267 83.3269C101.464 83.35 101.65 83.3706 101.835 83.3934C103.203 83.5614 104.553 83.8132 105.843 84.351C107.206 84.9195 108.372 85.7559 109.128 87.1327C109.668 88.1153 109.878 89.1949 109.916 90.3177C110.002 92.7916 109.149 94.7357 107.067 95.9793C107.01 96.013 106.958 96.0568 106.885 96.11C107.247 96.23 107.58 96.3289 107.906 96.45C109.9 97.192 111.298 98.5404 111.788 100.799C111.868 101.166 111.919 101.541 111.983 101.912V103.679C111.929 104.062 111.88 104.446 111.821 104.828C111.41 107.476 110.085 109.391 107.768 110.499C106.136 111.279 104.399 111.588 102.635 111.768C102.177 111.815 101.719 111.852 101.247 111.895C101.247 112.324 101.247 112.721 101.248 113.119C101.251 114.798 101.254 116.477 101.258 118.157H97.6648V111.974H94.8314C94.8314 112.093 94.8317 112.205 94.8314 112.317C94.8285 114.264 94.8256 116.21 94.8228 118.157H91.2831V111.878C91.1432 111.878 91.0465 111.878 90.95 111.878C88.7812 111.869 86.6122 111.86 84.4431 111.849C84.3278 111.849 84.2125 111.837 84.0972 111.83" fill="white"/>
<path fill-rule="evenodd" clip-rule="evenodd" d="M334.544 299.624V307.146C334.608 307.153 334.659 307.164 334.71 307.163C335.861 307.138 337.014 307.148 338.162 307.076C339.135 307.014 340.087 306.796 340.979 306.349C342.82 305.426 343.434 303.142 342.284 301.462C341.743 300.671 340.956 300.275 340.1 300.016C338.283 299.469 336.423 299.595 334.544 299.624M334.542 311.004V319.289C334.605 319.297 334.656 319.31 334.707 319.309C336.251 319.263 337.797 319.256 339.337 319.155C340.362 319.087 341.367 318.831 342.312 318.377C343.246 317.928 344.032 317.3 344.342 316.207C344.748 314.78 344.413 313.131 342.91 312.17C341.804 311.462 340.573 311.166 339.312 311.088C337.824 310.996 336.331 311.014 334.84 310.986C334.744 310.984 334.647 310.998 334.542 311.004M323.702 323.788C323.702 323.712 323.702 323.636 323.702 323.56C323.718 323.528 323.745 323.499 323.75 323.465C323.88 322.642 324.007 321.819 324.135 320.996C324.224 320.429 324.315 319.863 324.406 319.287C324.542 319.287 324.648 319.287 324.755 319.287C325.505 319.286 326.256 319.302 327.006 319.28C327.866 319.255 328.325 318.728 328.325 317.809C328.325 312.283 328.324 306.756 328.324 301.23C328.324 300.37 327.825 299.672 327.041 299.454C326.827 299.395 326.602 299.357 326.381 299.354C325.488 299.338 324.595 299.34 323.702 299.336V295.289H330.878C330.878 295.133 330.878 295.02 330.878 294.908C330.881 292.964 330.884 291.02 330.888 289.076H334.427C334.43 290.984 334.433 292.892 334.436 294.8C334.436 294.911 334.436 295.023 334.436 295.124H337.269V289.076H340.862C340.858 289.133 340.851 289.19 340.851 289.246C340.85 291.193 340.851 293.139 340.852 295.085C340.852 295.149 340.864 295.213 340.872 295.285C341.069 295.308 341.254 295.329 341.439 295.352C342.807 295.52 344.158 295.771 345.447 296.309C346.81 296.878 347.976 297.714 348.733 299.091C349.273 300.073 349.482 301.153 349.521 302.276C349.606 304.75 348.754 306.694 346.671 307.937C346.615 307.971 346.563 308.015 346.489 308.068C346.852 308.188 347.185 308.287 347.51 308.408C349.504 309.15 350.903 310.499 351.393 312.757C351.472 313.125 351.524 313.499 351.588 313.87V315.637C351.534 316.02 351.485 316.404 351.425 316.786C351.014 319.435 349.69 321.349 347.372 322.457C345.741 323.237 344.004 323.546 342.24 323.726C341.782 323.773 341.323 323.81 340.852 323.853C340.852 324.282 340.851 324.679 340.852 325.077C340.855 326.756 340.859 328.436 340.862 330.115H337.269V323.932H334.436C334.436 324.051 334.436 324.163 334.436 324.275C334.433 326.222 334.43 328.168 334.427 330.115H330.888V323.836C330.748 323.836 330.651 323.836 330.555 323.836C328.386 323.827 326.217 323.818 324.048 323.808C323.932 323.807 323.817 323.795 323.702 323.788" fill="white"/>
<circle cx="337.525" cy="309.35" r="36.2838" stroke="white" stroke-width="3"/>
<path d="M199.5 270H214.5M233.5 270H244.5M251.5 270H267.5M273 270H283M292.5 270H321M199.5 286H229M236 286H244.5M251.5 286H276M280.5 286H308" stroke="white" stroke-width="3"/>
</svg>
