<svg width="220" height="219" viewBox="0 0 220 219" fill="none" xmlns="http://www.w3.org/2000/svg">
<path d="M85.3979 129.14L91.618 136.527L76.0677 151.494L42.6346 118.918M85.3979 129.14L109.695 104.649C113.388 96.8733 108.14 84.8219 94.3393 89.0983L69.6532 113.396M85.3979 129.14L73.7352 140.22C62.8239 140.507 58.9007 138.751 58.5737 125.836L69.6532 113.396M69.6532 113.396L58.5737 102.742M53.0807 100.178L54.4917 98.8172L58.5737 102.742M53.0807 100.178L42.6346 89.8758L36.3173 96.0959M53.0807 100.178L46.6302 106.398M40.1797 112.618L38.1639 114.562L42.6346 118.918M40.1797 112.618L30 102.316L36.3173 96.0959M40.1797 112.618L46.6302 106.398M46.6302 106.398L36.3173 96.0959M43.0234 98.8172L45.1615 96.8734M38.9414 103.094L36.9976 105.037M42.6346 118.918L58.5737 102.742M73.7352 124.475C71.0194 122.027 66.702 122.408 64.405 125.253C62.2031 127.98 62.525 131.909 65.1825 134.194C67.8974 136.529 72.014 136.157 74.3183 133.417C76.5702 130.738 76.3343 126.818 73.7352 124.475Z" stroke="white" stroke-width="3"/>
<path d="M183.974 156.847C183.974 150.867 183.974 141.534 183.974 141.534C182.829 139.703 181.973 138.846 179.298 138.244H109.733C106.657 138.815 105.748 139.667 104.667 141.534V167.731C105.879 170.196 106.962 170.729 109.149 171.148C109.149 171.148 107.815 171.148 111.206 171.148M156.343 171.148C143.485 171.148 128.39 171.148 118.799 171.148M111.206 171.148V180.007H118.799V171.148M111.206 171.148C109.307 171.148 117.235 171.148 118.799 171.148" stroke="white" stroke-width="3"/>
<path d="M114.159 182.749H112.471V180.218H117.533V182.749H115.846M114.159 182.749V186.756H115.846V182.749M114.159 182.749H115.846" stroke="white"/>
<path d="M134.187 63.2458C132.72 62.795 130.229 64.1316 130.105 65.384V80.3511C130.364 81.9665 130.885 82.7179 132.826 83.6556H160.428C161.941 83.0684 162.505 82.5236 162.955 81.1287V65.384C163.018 64.5708 160.546 63.0481 158.873 63.2458M134.187 63.2458C133.38 70.4568 139.371 77.1035 146.627 77.0467C153.832 76.9903 159.674 70.4065 158.873 63.2458M134.187 63.2458C135.426 57.5156 139.619 53.8288 145.461 53.3325C151.951 52.7811 157.496 56.8799 158.873 63.2458M158.873 116.506H134.187L121.941 97.0677V55.2763C123.275 51.8064 124.669 50.3318 128.744 48.8618H163.732C167.664 49.9689 169.108 51.4293 170.536 55.2763V97.0677L158.873 116.506ZM139.435 66.3559L141.573 63.2458L145.461 65.9671L150.515 59.9414L153.43 62.4683L146.238 71.021L139.435 66.3559Z" stroke="white" stroke-width="3"/>
<path d="M132.049 94.735C129.133 94.7349 129.133 89.8755 132.049 89.8755H141.184C144.1 89.8755 144.295 94.735 141.184 94.735H132.049Z" stroke="white" stroke-width="3"/>
<path d="M160.622 89.8755H151.486C148.571 89.8755 148.571 94.735 151.486 94.735H160.622C163.538 94.735 163.732 89.8755 160.622 89.8755Z" stroke="white" stroke-width="3"/>
<path d="M186.864 134C193.015 108.572 191.643 94.4227 176.756 69.466M144.295 43.4193C122.525 32.9228 91.2298 34.6722 69.265 53.3326M43.2183 131.278C53.9091 177.735 105.614 195.812 139.824 182.983" stroke="white" stroke-width="3"/>
<circle cx="69.8476" cy="77.0469" r="16.1885" stroke="white" stroke-width="3"/>
<path fill-rule="evenodd" clip-rule="evenodd" d="M68.7835 73.1382V76.3111C68.8106 76.314 68.8323 76.3188 68.8538 76.3184C69.3393 76.308 69.8255 76.3121 70.31 76.2816C70.7202 76.2558 71.1222 76.1638 71.4985 75.9749C72.2749 75.5855 72.5338 74.6223 72.0489 73.9136C71.8205 73.5798 71.4885 73.4126 71.1274 73.3036C70.3609 73.0726 69.5763 73.1261 68.7835 73.1382M68.7826 77.939V81.434C68.8091 81.4373 68.8309 81.4428 68.8524 81.4422C69.5037 81.4229 70.1558 81.42 70.8056 81.3772C71.2379 81.3487 71.6618 81.2408 72.0606 81.0492C72.4545 80.8598 72.7859 80.5947 72.9169 80.1339C73.088 79.5317 72.9467 78.8362 72.3127 78.4306C71.8461 78.1321 71.3269 78.0072 70.7948 77.9743C70.1674 77.9355 69.5375 77.943 68.9086 77.9312C68.8678 77.9305 68.827 77.9362 68.7826 77.939M64.21 83.3311C64.21 83.299 64.21 83.2669 64.21 83.2348C64.217 83.2216 64.2283 83.209 64.2305 83.1949C64.2851 82.8478 64.3386 82.5005 64.3929 82.1533C64.4303 81.9142 64.4686 81.6753 64.5072 81.4322C64.5645 81.4322 64.6094 81.4322 64.6541 81.4322C64.9708 81.4318 65.2875 81.4385 65.6038 81.4293C65.9666 81.4187 66.1602 81.1964 66.1602 80.8086C66.1603 78.4775 66.1601 76.1462 66.1597 73.8151C66.1597 73.4521 65.9493 73.1576 65.6187 73.0659C65.5284 73.041 65.4333 73.025 65.3401 73.0235C64.9635 73.0171 64.5867 73.0179 64.21 73.016V71.3089H67.2374C67.2374 71.2428 67.2372 71.1954 67.2374 71.1479C67.2387 70.328 67.24 69.508 67.2413 68.688H68.7345C68.7357 69.4928 68.737 70.2977 68.7382 71.1026C68.7383 71.1494 68.7382 71.1964 68.7382 71.2391H69.9334V68.688H71.4492C71.4474 68.712 71.4442 68.7358 71.4442 68.7597C71.4441 69.5807 71.4442 70.4017 71.4448 71.2228C71.4448 71.2497 71.45 71.2767 71.4531 71.3071C71.5362 71.3169 71.6145 71.3256 71.6926 71.3352C72.2697 71.406 72.8393 71.5123 73.3832 71.7392C73.9583 71.979 74.45 72.3318 74.7693 72.9126C74.9972 73.3271 75.0854 73.7825 75.1017 74.2562C75.1378 75.2998 74.778 76.1199 73.8996 76.6445C73.8757 76.6588 73.854 76.6772 73.8229 76.6996C73.9758 76.7503 74.1162 76.792 74.2536 76.8431C75.0948 77.1561 75.6847 77.7249 75.8914 78.6776C75.925 78.8327 75.9466 78.9907 75.9738 79.1473V79.8927C75.951 80.0543 75.9303 80.2162 75.9052 80.3773C75.7318 81.4946 75.173 82.3023 74.1955 82.7697C73.5071 83.0987 72.7743 83.229 72.0302 83.3051C71.837 83.3248 71.6435 83.3405 71.4448 83.3584C71.4448 83.5394 71.4445 83.707 71.4449 83.8748C71.4462 84.5832 71.4477 85.2916 71.4492 86H69.9334V83.3919H68.7382C68.7382 83.442 68.7383 83.4893 68.7382 83.5366C68.737 84.3577 68.7357 85.1788 68.7345 86H67.2413V83.3512C67.1823 83.3512 67.1415 83.3513 67.1008 83.3512C66.1859 83.3474 65.2709 83.3436 64.3559 83.3393C64.3072 83.3392 64.2586 83.3339 64.21 83.3311" fill="white"/>
<path fill-rule="evenodd" clip-rule="evenodd" d="M169.861 162.552V165.725C169.888 165.728 169.91 165.733 169.931 165.732C170.417 165.722 170.903 165.726 171.387 165.695C171.798 165.67 172.2 165.578 172.576 165.389C173.352 164.999 173.611 164.036 173.126 163.327C172.898 162.994 172.566 162.826 172.205 162.717C171.438 162.486 170.654 162.54 169.861 162.552M169.86 167.353V170.848C169.887 170.851 169.908 170.857 169.93 170.856C170.581 170.837 171.233 170.834 171.883 170.791C172.315 170.762 172.739 170.655 173.138 170.463C173.532 170.274 173.863 170.008 173.994 169.548C174.166 168.945 174.024 168.25 173.39 167.844C172.924 167.546 172.404 167.421 171.872 167.388C171.245 167.349 170.615 167.357 169.986 167.345C169.945 167.344 169.905 167.35 169.86 167.353M165.287 172.746C165.287 172.714 165.287 172.681 165.287 172.649C165.294 172.636 165.305 172.624 165.308 172.609C165.362 172.262 165.416 171.915 165.47 171.568C165.507 171.329 165.546 171.09 165.584 170.847C165.642 170.847 165.687 170.847 165.731 170.847C166.048 170.846 166.365 170.853 166.681 170.844C167.044 170.833 167.237 170.611 167.237 170.223C167.237 167.892 167.237 165.561 167.237 163.23C167.237 162.867 167.026 162.572 166.696 162.48C166.606 162.456 166.51 162.44 166.417 162.438C166.041 162.432 165.664 162.432 165.287 162.431V160.723H168.315C168.315 160.657 168.314 160.61 168.315 160.562C168.316 159.743 168.317 158.923 168.318 158.103H169.812C169.813 158.907 169.814 159.712 169.815 160.517C169.815 160.564 169.815 160.611 169.815 160.654H171.011V158.103H172.526C172.525 158.127 172.521 158.15 172.521 158.174C172.521 158.995 172.521 159.816 172.522 160.637C172.522 160.664 172.527 160.691 172.53 160.722C172.613 160.731 172.692 160.74 172.77 160.75C173.347 160.821 173.916 160.927 174.46 161.154C175.035 161.394 175.527 161.746 175.846 162.327C176.074 162.742 176.163 163.197 176.179 163.671C176.215 164.714 175.855 165.534 174.977 166.059C174.953 166.073 174.931 166.092 174.9 166.114C175.053 166.165 175.193 166.207 175.331 166.258C176.172 166.571 176.762 167.139 176.969 168.092C177.002 168.247 177.024 168.405 177.051 168.562V169.307C177.028 169.469 177.007 169.631 176.982 169.792C176.809 170.909 176.25 171.717 175.273 172.184C174.584 172.513 173.851 172.644 173.107 172.72C172.914 172.739 172.721 172.755 172.522 172.773C172.522 172.954 172.522 173.122 172.522 173.289C172.523 173.998 172.525 174.706 172.526 175.415H171.011V172.806H169.815C169.815 172.857 169.815 172.904 169.815 172.951C169.814 173.772 169.813 174.593 169.812 175.415H168.318V172.766C168.259 172.766 168.219 172.766 168.178 172.766C167.263 172.762 166.348 172.758 165.433 172.754C165.384 172.754 165.336 172.748 165.287 172.746" fill="white"/>
<circle cx="171.119" cy="166.655" r="14.439" stroke="white" stroke-width="3"/>
<path d="M112.894 150.055H119.221M127.236 150.055H131.877M134.83 150.055H141.579M143.899 150.055H148.118M152.125 150.055H164.148M112.894 156.805H125.338M128.291 156.805H131.877M134.83 156.805H145.165M147.063 156.805H158.664" stroke="white" stroke-width="3"/>
</svg>
