<svg width="220" height="219" viewBox="0 0 220 219" fill="none" xmlns="http://www.w3.org/2000/svg">
<path d="M81.3885 93.1905H56.0283V78.2964" stroke="white" stroke-width="3"/>
<path d="M80.986 129.017H56.0283V143.509" stroke="white" stroke-width="3"/>
<path fill-rule="evenodd" clip-rule="evenodd" d="M106.075 101.455V108.804C106.137 108.811 106.188 108.822 106.238 108.821C107.362 108.797 108.488 108.807 109.61 108.736C110.561 108.676 111.492 108.463 112.363 108.026C114.162 107.124 114.761 104.893 113.638 103.251C113.109 102.478 112.34 102.09 111.504 101.838C109.729 101.303 107.911 101.427 106.075 101.455M106.073 112.575V120.67C106.135 120.678 106.185 120.69 106.235 120.689C107.743 120.644 109.254 120.638 110.759 120.539C111.76 120.472 112.742 120.223 113.666 119.779C114.578 119.34 115.346 118.726 115.649 117.659C116.046 116.264 115.718 114.653 114.25 113.713C113.169 113.022 111.966 112.732 110.734 112.656C109.281 112.566 107.822 112.584 106.365 112.557C106.27 112.555 106.176 112.568 106.073 112.575M95.4814 125.066C95.4814 124.991 95.4814 124.917 95.4814 124.843C95.4978 124.812 95.524 124.783 95.5291 124.75C95.6556 123.946 95.7795 123.142 95.9052 122.338C95.9918 121.784 96.0806 121.23 96.17 120.667C96.3026 120.667 96.4066 120.667 96.5103 120.667C97.2437 120.666 97.9773 120.682 98.7099 120.661C99.5503 120.636 99.9987 120.121 99.9987 119.223C99.999 113.823 99.9984 108.423 99.9977 103.024C99.9977 102.183 99.5104 101.501 98.7445 101.289C98.5353 101.231 98.3151 101.194 98.0992 101.19C97.2268 101.175 96.3541 101.177 95.4814 101.173V97.2187H102.494C102.494 97.0658 102.494 96.9558 102.494 96.8459C102.497 94.9467 102.5 93.0473 102.503 91.1479H105.962C105.965 93.0122 105.967 94.8765 105.97 96.7408C105.97 96.8494 105.97 96.9583 105.97 97.057H108.739V91.1479H112.25C112.246 91.2035 112.238 91.2587 112.238 91.314C112.238 93.2158 112.238 95.1174 112.239 97.0192C112.239 97.0815 112.251 97.1441 112.259 97.2146C112.451 97.2372 112.632 97.2574 112.813 97.2797C114.15 97.4438 115.47 97.6898 116.729 98.2154C118.062 98.7708 119.201 99.5881 119.94 100.933C120.468 101.894 120.672 102.948 120.71 104.046C120.794 106.463 119.96 108.362 117.926 109.578C117.87 109.611 117.82 109.653 117.748 109.705C118.102 109.823 118.427 109.919 118.745 110.038C120.694 110.763 122.06 112.08 122.539 114.287C122.617 114.646 122.667 115.012 122.73 115.375V117.101C122.677 117.476 122.629 117.851 122.571 118.224C122.169 120.812 120.875 122.683 118.611 123.765C117.016 124.527 115.319 124.829 113.596 125.006C113.148 125.051 112.7 125.087 112.239 125.129C112.239 125.548 112.239 125.937 112.24 126.325C112.243 127.966 112.246 129.607 112.25 131.248H108.739V125.207H105.97C105.97 125.323 105.97 125.432 105.97 125.542C105.967 127.444 105.965 129.346 105.962 131.248H102.503V125.112C102.366 125.112 102.272 125.112 102.178 125.112C100.058 125.103 97.9389 125.095 95.8195 125.085C95.7068 125.084 95.5941 125.072 95.4814 125.066" fill="white"/>
<path d="M137.342 93.9154H163.104V79.4238" stroke="white" stroke-width="6"/>
<path d="M137.342 129.017H163.104V143.509" stroke="white" stroke-width="3"/>
<circle cx="109.164" cy="111.305" r="32.3136" stroke="white" stroke-width="3"/>
<circle cx="17.2839" cy="76.2839" r="11.2839" stroke="white" stroke-width="4"/>
<path d="M28.6553 76.6865H49.4048M65.6892 76.6865H61.7494M61.7494 76.6865V84.7374M61.7494 76.6865H49.4048M49.4048 76.6865V82.6597" stroke="white" stroke-width="3"/>
<circle cx="17.2839" cy="144.716" r="11.2839" stroke="white" stroke-width="4"/>
<path d="M28.6553 145.119H49.4048M65.6892 145.119H61.7494M61.7494 145.119V153.17M61.7494 145.119H49.4048M49.4048 145.119V151.092" stroke="white" stroke-width="3"/>
<circle r="11.2839" transform="matrix(-1 0 0 1 201.848 77.0891)" stroke="white" stroke-width="4"/>
<path d="M190.477 77.4912H169.728M153.443 77.4912H157.383M157.383 77.4912V85.5421M157.383 77.4912H169.728M169.728 77.4912V83.4644" stroke="white" stroke-width="3"/>
<circle r="11.2839" transform="matrix(-1 0 0 1 201.848 144.716)" stroke="white" stroke-width="4"/>
<path d="M190.477 145.119H169.728M153.443 145.119H157.383M157.383 145.119V153.17M157.383 145.119H169.728M169.728 145.119V151.092" stroke="white" stroke-width="3"/>
</svg>
