<svg width="421" height="189" viewBox="0 0 421 189" fill="none" xmlns="http://www.w3.org/2000/svg">
<path d="M153.962 60.0636H103.508V30.4323" stroke="white" stroke-width="3"/>
<path d="M153.161 131.339H103.508V160.169" stroke="white" stroke-width="3"/>
<path fill-rule="evenodd" clip-rule="evenodd" d="M203.076 76.5046V91.1259C203.2 91.1395 203.3 91.1617 203.4 91.1595C205.637 91.1119 207.878 91.1308 210.11 90.99C212 90.8709 213.853 90.447 215.587 89.5769C219.165 87.7825 220.358 83.3437 218.123 80.0777C217.071 78.5394 215.541 77.7689 213.877 77.267C210.345 76.2025 206.729 76.4489 203.076 76.5046M203.071 98.6269V114.732C203.194 114.748 203.294 114.773 203.393 114.77C206.395 114.682 209.4 114.668 212.394 114.471C214.386 114.339 216.34 113.842 218.177 112.959C219.992 112.086 221.52 110.865 222.123 108.741C222.912 105.966 222.261 102.761 219.339 100.892C217.189 99.5165 214.796 98.941 212.344 98.7894C209.453 98.6107 206.55 98.6453 203.652 98.5912C203.464 98.5879 203.276 98.6139 203.071 98.6269M182 123.478C182 123.331 182 123.183 182 123.035C182.033 122.974 182.085 122.916 182.095 122.851C182.346 121.251 182.593 119.651 182.843 118.051C183.015 116.949 183.192 115.848 183.37 114.728C183.634 114.728 183.841 114.728 184.047 114.728C185.506 114.726 186.965 114.757 188.423 114.714C190.095 114.666 190.987 113.641 190.987 111.854C190.987 101.112 190.986 90.3692 190.985 79.6268C190.985 77.9542 190.015 76.5968 188.492 76.1745C188.076 76.0597 187.637 75.9861 187.208 75.979C185.472 75.9492 183.736 75.953 182 75.9444V68.0776H195.951C195.951 67.7733 195.95 67.5546 195.951 67.3358C195.957 63.5576 195.963 59.7788 195.969 56H202.85C202.856 59.7089 202.861 63.4179 202.867 67.1268C202.867 67.3429 202.867 67.5594 202.867 67.756H208.375V56H215.36C215.352 56.1105 215.337 56.2204 215.337 56.3303C215.336 60.1139 215.337 63.8971 215.339 67.6807C215.339 67.8047 215.363 67.9293 215.378 68.0695C215.761 68.1144 216.121 68.1545 216.482 68.1989C219.141 68.5254 221.766 69.0149 224.272 70.0604C226.923 71.1655 229.188 72.7915 230.66 75.4679C231.71 77.3781 232.116 79.4768 232.192 81.6594C232.358 86.4685 230.7 90.2479 226.652 92.6655C226.542 92.731 226.442 92.816 226.298 92.9194C227.003 93.1528 227.65 93.345 228.283 93.5805C232.16 95.0229 234.878 97.6441 235.83 102.034C235.985 102.749 236.085 103.477 236.21 104.199V107.634C236.105 108.378 236.01 109.124 235.894 109.867C235.095 115.015 232.52 118.737 228.015 120.891C224.843 122.407 221.466 123.008 218.037 123.359C217.147 123.45 216.255 123.522 215.339 123.605C215.339 124.438 215.338 125.211 215.34 125.984C215.346 129.249 215.353 132.513 215.36 135.777H208.375V123.759H202.867C202.867 123.989 202.867 124.208 202.867 124.425C202.861 128.21 202.856 131.993 202.85 135.777H195.969V123.571C195.697 123.571 195.509 123.571 195.322 123.571C191.106 123.554 186.889 123.536 182.672 123.516C182.448 123.516 182.224 123.491 182 123.478" fill="white"/>
<path d="M265.28 61.5051H316.534V32.6746" stroke="white" stroke-width="6"/>
<path d="M265.28 131.339H316.534V160.169" stroke="white" stroke-width="3"/>
<circle cx="209.22" cy="96.1018" r="65.7712" stroke="white" stroke-width="3"/>
<circle cx="26.428" cy="26.428" r="24.428" stroke="white" stroke-width="4"/>
<path d="M49.0508 27.2288H90.3313M122.729 27.2288H114.891M114.891 27.2288V43.2457M114.891 27.2288H90.3313M90.3313 27.2288V39.1123" stroke="white" stroke-width="3"/>
<circle cx="26.428" cy="162.572" r="24.428" stroke="white" stroke-width="4"/>
<path d="M49.0508 163.373H90.3313M122.729 163.373H114.891M114.891 163.373V179.39M114.891 163.373H90.3313M90.3313 163.373V175.256" stroke="white" stroke-width="3"/>
<circle r="24.428" transform="matrix(-1 0 0 1 393.615 28.0296)" stroke="white" stroke-width="4"/>
<path d="M370.992 28.8306L329.711 28.8306M297.314 28.8306L305.152 28.8306M305.152 28.8306V44.8475M305.152 28.8306L329.711 28.8306M329.711 28.8306V40.7141" stroke="white" stroke-width="3"/>
<circle r="24.428" transform="matrix(-1 0 0 1 393.615 162.572)" stroke="white" stroke-width="4"/>
<path d="M370.992 163.373H329.711M297.314 163.373H305.152M305.152 163.373V179.39M305.152 163.373H329.711M329.711 163.373V175.256" stroke="white" stroke-width="3"/>
</svg>
