<svg width="220" height="219" viewBox="0 0 220 219" fill="none" xmlns="http://www.w3.org/2000/svg">
<path d="M72.5251 86.516H133.152C133.995 86.516 134.828 86.724 135.555 87.1508C140.63 90.1296 142.314 92.6592 142.176 98.2927V165.252C141.704 170.806 139.337 171.97 135.358 173.619C134.751 173.871 134.099 174 133.441 174H60.9722C60.3791 174 59.7881 173.899 59.2381 173.677C55.0946 172.005 53.3154 170.115 52.1532 165.843C52.047 165.452 52 165.047 52 164.643V98.7319C52 98.4397 52.0247 98.1469 52.0797 97.8599C52.9767 93.1779 54.627 90.6783 58.778 87.4812C59.6101 86.8403 60.6407 86.516 61.691 86.516H72.5251ZM72.5251 86.516V53.3464C72.5251 53.0284 72.5546 52.7125 72.6317 52.404C73.3644 49.4719 78.2223 33.6267 97.7608 33.0162C117.268 32.4066 122.694 49.1924 123.543 52.3576C123.633 52.6959 123.67 53.0449 123.67 53.3952V69.0192M142.176 57.9155L149.242 41.7646M152.27 66.6639L167.412 60.6073M152.27 79.45L167.412 86.516M99.1068 150.11V132.277" stroke="white" stroke-width="5"/>
<circle cx="99.343" cy="126.657" r="7.20438" fill="white"/>
</svg>
