<svg width="227" height="278" viewBox="0 0 227 278" fill="none" xmlns="http://www.w3.org/2000/svg">
<path d="M41.8856 105.996H160.911C161.754 105.996 162.586 106.207 163.319 106.623C173.999 112.684 177.514 117.553 177.235 128.881V259C176.284 270.191 171.374 272.21 163.118 275.619C162.51 275.87 161.858 276 161.201 276H18.5895C17.9964 276 17.4065 275.896 16.8532 275.682C8.05262 272.283 4.47699 268.561 2.15033 259.593C2.04876 259.202 2 258.795 2 258.391V129.32C2 129.028 2.02575 128.732 2.07873 128.445C3.8873 118.635 7.29484 113.714 16.3856 106.953C17.2284 106.326 18.258 105.996 19.3083 105.996H41.8856ZM41.8856 105.996V41.0874C41.8856 40.7694 41.914 40.4603 41.9859 40.1505C42.9761 35.8827 51.8183 3.25343 90.9253 2.03147C129.999 0.810536 140 35.5038 141.154 40.1075C141.239 40.4472 141.273 40.786 141.273 41.1362V71.9948M177.235 50.4173L190.966 19.0319M196.851 67.4177L226.275 55.6482M196.851 92.2645L226.275 105.996M93.5408 229.576V194.921" stroke="white" stroke-width="3"/>
<circle cx="94" cy="184" r="14" fill="white"/>
</svg>
