<svg width="310" height="224" viewBox="0 0 310 224" fill="none" xmlns="http://www.w3.org/2000/svg">
<path d="M273.24 133.141H279.125C279.681 133.141 280.212 133.373 280.59 133.78L285.737 139.322C286.08 139.692 286.271 140.178 286.271 140.683V173.772C286.271 174.33 286.038 174.863 285.628 175.241L280.572 179.909C280.202 180.25 279.718 180.439 279.215 180.439H230.06C229.583 180.439 229.121 180.268 228.759 179.958L223.262 175.246C222.819 174.866 222.563 174.311 222.563 173.728V140.726C222.563 140.196 222.774 139.687 223.149 139.312L228.735 133.727C229.11 133.352 229.618 133.141 230.149 133.141H236.077M273.24 133.141V116.24C273.24 115.929 273.166 115.619 273.025 115.341C269.849 109.121 267.352 106.488 261.863 103.801C261.727 103.734 261.581 103.683 261.433 103.65C256.18 102.468 253.226 102.364 248.287 103.662C248.192 103.687 248.096 103.721 248.006 103.76C241.035 106.79 238.543 109.5 236.213 115.418C236.123 115.646 236.077 115.892 236.077 116.138V133.141M273.24 133.141H244.765M236.077 133.141H244.765M244.765 133.141V118.145C244.765 117.85 244.829 117.557 244.959 117.292C246.705 113.729 248.511 112.012 254.063 110.549C254.295 110.488 254.541 110.47 254.779 110.5C259.187 111.056 261.347 112.699 264.245 117.211C264.448 117.527 264.553 117.896 264.553 118.271V127.349" stroke="white" stroke-width="3"/>
<path d="M152.099 222.428H82.2077C80.667 222.428 79.7049 220.76 80.4768 219.426L83.47 214.256C83.8276 213.639 84.4872 213.258 85.2009 213.258H142.446M148.721 213.258H142.446M142.446 213.258L141.141 193.673C141.064 192.518 141.979 191.54 143.136 191.54H214.359M94.1831 212.293V191.54M94.1831 191.54H132.794M94.1831 191.54H12.8752C12.3977 191.54 11.9361 191.369 11.5736 191.058L2.69842 183.451C2.25513 183.071 2 182.516 2 181.933V50.5436C2 49.9723 2.2443 49.4283 2.67127 49.0488L10.1191 42.4285C10.4852 42.1031 10.958 41.9233 11.4478 41.9233H164.648M214.359 191.54C205.71 181.4 202.224 174.615 198.965 160.391C198.932 160.245 198.915 160.093 198.915 159.944V100.648C198.915 99.6357 199.671 98.7867 200.674 98.648C205.225 98.0182 209.556 97.014 220.633 93.5651M214.359 191.54C227.948 204.408 236.939 209.998 255.383 217.119M174.783 168.856H17.7901C17.2596 168.856 16.7509 168.645 16.3759 168.27L11.7558 163.65C11.3808 163.275 11.17 162.766 11.17 162.236V57.1422C11.17 56.6647 11.3408 56.2031 11.6515 55.8406L16.363 50.3439C16.743 49.9006 17.2977 49.6454 17.8815 49.6454H60.3987M69.0861 49.6454H172.852M172.852 49.6454V7.18233C172.852 6.73996 172.999 6.31007 173.269 5.95995L176.113 2.27761C176.492 1.78719 177.076 1.5 177.696 1.5H241M172.852 49.6454L176.117 53.3179C176.496 53.7449 177.04 53.9891 177.612 53.9891H220.633M241 12V51.9891C241 53.0937 240.105 53.9891 239 53.9891H220.633M220.633 53.9891V93.5651M220.633 93.5651L229.803 91.6346M229.803 91.6346V62.6766M229.803 91.6346C240.409 87.7429 245.275 84.3052 252.229 77.8234C252.939 77.162 254.024 77.0966 254.806 77.6706C271.276 89.7596 279.95 94.2545 292.864 96.4333C292.972 96.4516 293.084 96.4609 293.194 96.4609H305.99C307.094 96.4609 307.99 97.3564 307.99 98.4609V168.325C307.99 168.673 307.896 169.02 307.723 169.322C295.687 190.27 285.324 199.742 262.14 213.258" stroke="white" stroke-width="3"/>
<path d="M236.22 161.36L239.44 158.32C241.4 156.5 241.78 155.26 241.78 153.9C241.78 151.36 239.7 149.76 236.58 149.76C234.06 149.76 232.1 150.78 231.02 152.36L233.38 153.88C234.06 152.94 235.08 152.48 236.28 152.48C237.76 152.48 238.52 153.12 238.52 154.22C238.52 154.9 238.3 155.62 237.06 156.8L231.66 161.9V164H242.24V161.36H236.22ZM257.037 152.6V150H246.457V164H249.697V158.9H256.177V156.3H249.697V152.6H257.037ZM271.104 164H274.504L268.244 150H265.044L258.804 164H262.124L263.364 161H269.864L271.104 164ZM264.404 158.54L266.624 153.18L268.844 158.54H264.404Z" fill="white"/>
<path fill-rule="evenodd" clip-rule="evenodd" d="M112.387 103.132V109.645C112.442 109.651 112.487 109.66 112.531 109.66C113.528 109.638 114.525 109.647 115.52 109.584C116.362 109.531 117.187 109.342 117.959 108.955C119.553 108.155 120.084 106.178 119.089 104.724C118.62 104.039 117.939 103.696 117.197 103.472C115.624 102.998 114.014 103.108 112.387 103.132M112.385 112.985V120.159C112.439 120.165 112.484 120.177 112.528 120.175C113.865 120.136 115.204 120.13 116.537 120.042C117.424 119.983 118.294 119.762 119.113 119.369C119.921 118.98 120.602 118.436 120.87 117.49C121.222 116.254 120.932 114.827 119.63 113.994C118.673 113.382 117.607 113.125 116.515 113.058C115.227 112.978 113.934 112.994 112.644 112.969C112.56 112.968 112.476 112.98 112.385 112.985M103 124.054C103 123.988 103 123.922 103 123.856C103.015 123.829 103.038 123.803 103.042 123.774C103.154 123.062 103.264 122.349 103.376 121.637C103.452 121.146 103.531 120.656 103.61 120.157C103.728 120.157 103.82 120.157 103.912 120.157C104.561 120.156 105.212 120.17 105.861 120.151C106.605 120.129 107.003 119.673 107.003 118.877C107.003 114.092 107.002 109.308 107.002 104.523C107.002 103.778 106.57 103.174 105.891 102.985C105.706 102.934 105.511 102.901 105.32 102.898C104.547 102.885 103.773 102.887 103 102.883V99.3792H109.214C109.214 99.2437 109.213 99.1462 109.214 99.0488C109.216 97.366 109.219 95.683 109.222 94H112.286C112.289 95.6519 112.291 97.3038 112.294 98.9557C112.294 99.0519 112.294 99.1484 112.294 99.2359H114.747V94H117.858C117.854 94.0492 117.848 94.0981 117.848 94.1471C117.848 95.8323 117.848 97.5172 117.849 99.2024C117.849 99.2577 117.86 99.3131 117.866 99.3756C118.037 99.3956 118.197 99.4134 118.358 99.4332C119.542 99.5786 120.711 99.7966 121.828 100.262C123.008 100.754 124.017 101.479 124.672 102.671C125.14 103.522 125.321 104.456 125.355 105.428C125.429 107.57 124.69 109.254 122.887 110.33C122.838 110.359 122.794 110.397 122.73 110.443C123.044 110.547 123.332 110.633 123.614 110.738C125.34 111.38 126.551 112.548 126.975 114.503C127.044 114.821 127.089 115.146 127.144 115.467V116.997C127.098 117.329 127.055 117.661 127.004 117.991C126.648 120.285 125.501 121.942 123.495 122.902C122.082 123.577 120.578 123.844 119.051 124.001C118.654 124.041 118.257 124.073 117.849 124.11C117.849 124.481 117.848 124.826 117.849 125.17C117.852 126.624 117.855 128.078 117.858 129.532H114.747V124.179H112.294C112.294 124.282 112.294 124.379 112.294 124.476C112.291 126.161 112.289 127.846 112.286 129.532H109.222V124.095C109.101 124.095 109.017 124.095 108.933 124.095C107.056 124.087 105.178 124.08 103.3 124.071C103.2 124.071 103.1 124.06 103 124.054" fill="white"/>
<path d="M223.087 13C224.357 31.0012 221.088 39.5 207.088 45.5C193.815 38.909 190.379 31.7358 191.087 13C196.364 12.9224 200.115 12.3221 207.088 9C213.534 12.1162 216.651 12.9435 223.087 13Z" stroke="white" stroke-width="2" stroke-linejoin="bevel"/>
<path d="M198.588 22.5C198.588 22.5 201.088 18 207.588 18C214.088 18 216.088 22.5 216.088 22.5C216.088 22.5 213.588 27 207.588 27C201.588 27 198.588 22.5 198.588 22.5ZM198.588 22.5V27.25M198.588 27.25V32C198.588 32 201.088 36 207.588 36C214.088 36 216.088 32 216.088 32M198.588 27.25C198.588 27.25 201.588 31.5 207.588 31.5C213.588 31.5 216.088 27.5 216.088 27.5" stroke="white" stroke-width="2" stroke-linejoin="bevel"/>
</svg>
