<svg width="220" height="219" viewBox="0 0 220 219" fill="none" xmlns="http://www.w3.org/2000/svg">
<path d="M188.06 123.903H191.648C192.204 123.903 192.735 124.135 193.114 124.542L196.128 127.788C196.471 128.158 196.662 128.644 196.662 129.149V150.428C196.662 150.986 196.429 151.519 196.019 151.898L193.095 154.597C192.725 154.938 192.241 155.127 191.738 155.127H159.806C159.328 155.127 158.867 154.956 158.504 154.646L155.304 151.903C154.861 151.523 154.605 150.968 154.605 150.384V129.192C154.605 128.662 154.816 128.153 155.191 127.778L158.48 124.489C158.855 124.114 159.364 123.903 159.894 123.903H163.527M188.06 123.903V112.908C188.06 112.596 187.987 112.287 187.845 112.01C185.796 108.032 184.152 106.31 180.619 104.568C180.483 104.501 180.338 104.451 180.19 104.418C176.786 103.658 174.844 103.593 171.636 104.43C171.541 104.455 171.445 104.488 171.355 104.527C166.834 106.5 165.183 108.274 163.662 112.087C163.571 112.315 163.527 112.559 163.527 112.805V123.903M188.06 123.903H169.262M163.527 123.903H169.262M169.262 123.903V114.156C169.262 113.861 169.325 113.568 169.458 113.304C170.578 111.069 171.78 109.961 175.283 109.02C175.514 108.958 175.757 108.941 175.995 108.973C178.77 109.348 180.181 110.409 182.015 113.222C182.22 113.537 182.325 113.907 182.325 114.282V120.08" stroke="white" stroke-width="3"/>
<path d="M108.088 182.846H63.1282C61.5875 182.846 60.6254 181.178 61.3973 179.844L62.5863 177.791C62.9439 177.173 63.6035 176.793 64.3171 176.793H101.716M105.858 176.793H101.716M101.716 176.793L100.902 164.588C100.825 163.434 101.741 162.455 102.898 162.455H149.189M69.8549 176.156V162.455M69.8549 162.455H95.3438M69.8549 162.455H16.4307C15.9533 162.455 15.4916 162.284 15.1291 161.974L9.69842 157.319C9.25513 156.939 9 156.384 9 155.8V69.6815C9 69.1102 9.2443 68.5662 9.67127 68.1866L14.1667 64.1907C14.5328 63.8653 15.0056 63.6855 15.4954 63.6855H116.372M149.189 162.455C143.495 155.779 141.191 151.306 139.044 141.967C139.011 141.822 138.994 141.67 138.994 141.521V103.055C138.994 102.043 139.751 101.198 140.751 101.046C143.558 100.622 146.503 99.903 153.331 97.777M149.189 162.455C158.16 170.95 164.096 174.641 176.271 179.342M123.063 147.48H19.7054C19.175 147.48 18.6663 147.27 18.2912 146.895L15.6394 144.243C15.2643 143.868 15.0536 143.359 15.0536 142.829V73.9837C15.0536 73.5063 15.2244 73.0447 15.5351 72.6822L18.2783 69.4818C18.6583 69.0385 19.213 68.7833 19.7968 68.7833H47.552M53.2871 68.7833H121.789M121.789 68.7833V40.9831C121.789 40.5407 121.935 40.1108 122.206 39.7607L123.737 37.7776C124.116 37.2872 124.7 37 125.32 37H166.776M121.789 68.7833L123.741 70.9796C124.12 71.4065 124.664 71.6508 125.236 71.6508H153.331M166.776 43.9316V69.6508C166.776 70.7554 165.881 71.6508 164.776 71.6508H153.331M153.331 71.6508V97.777M153.331 97.777L159.385 96.5026M159.385 96.5026V77.3859M159.385 96.5026C166.172 94.0121 169.398 91.8034 173.771 87.7726C174.484 87.1152 175.568 87.0494 176.351 87.6218C186.903 95.3318 192.585 98.2397 200.959 99.661C201.067 99.6795 201.178 99.6887 201.289 99.6887H209C210.105 99.6887 211 100.584 211 101.689V146.95C211 147.297 210.907 147.644 210.733 147.945C202.826 161.665 195.979 167.904 180.732 176.793" stroke="white" stroke-width="4"/>
<path d="M168.43 144.02V146H160.495V144.425L164.545 140.6C164.975 140.19 165.265 139.84 165.415 139.55C165.565 139.25 165.64 138.955 165.64 138.665C165.64 138.245 165.495 137.925 165.205 137.705C164.925 137.475 164.51 137.36 163.96 137.36C163.5 137.36 163.085 137.45 162.715 137.63C162.345 137.8 162.035 138.06 161.785 138.41L160.015 137.27C160.425 136.66 160.99 136.185 161.71 135.845C162.43 135.495 163.255 135.32 164.185 135.32C164.965 135.32 165.645 135.45 166.225 135.71C166.815 135.96 167.27 136.32 167.59 136.79C167.92 137.25 168.085 137.795 168.085 138.425C168.085 138.995 167.965 139.53 167.725 140.03C167.485 140.53 167.02 141.1 166.33 141.74L163.915 144.02H168.43ZM174.023 137.45V140.225H178.883V142.175H174.023V146H171.593V135.5H179.528V137.45H174.023ZM189.148 143.75H184.273L183.343 146H180.853L185.533 135.5H187.933L192.628 146H190.078L189.148 143.75ZM188.383 141.905L186.718 137.885L185.053 141.905H188.383Z" fill="white"/>
<path fill-rule="evenodd" clip-rule="evenodd" d="M81.8721 104.093V108.392C81.9088 108.396 81.9381 108.403 81.9673 108.402C82.6252 108.388 83.284 108.393 83.9403 108.352C84.4962 108.317 85.0408 108.192 85.5507 107.937C86.6026 107.409 86.9534 106.104 86.2964 105.144C85.987 104.691 85.5372 104.465 85.0478 104.317C84.0094 104.004 82.9462 104.077 81.8721 104.093M81.8709 110.597V115.333C81.9069 115.337 81.9364 115.345 81.9656 115.344C82.848 115.318 83.7316 115.314 84.612 115.256C85.1977 115.217 85.7721 115.071 86.3124 114.811C86.8461 114.555 87.2951 114.196 87.4726 113.571C87.7045 112.755 87.5131 111.813 86.654 111.263C86.0218 110.859 85.3183 110.69 84.5973 110.645C83.7473 110.593 82.8938 110.603 82.0417 110.587C81.9864 110.586 81.9312 110.593 81.8709 110.597M75.6753 117.904C75.6753 117.861 75.6753 117.817 75.6753 117.774C75.6849 117.756 75.7002 117.739 75.7032 117.72C75.7771 117.249 75.8496 116.779 75.9232 116.308C75.9738 115.984 76.0258 115.661 76.0781 115.331C76.1557 115.331 76.2165 115.331 76.2771 115.331C76.7061 115.331 77.1353 115.34 77.5638 115.327C78.0554 115.313 78.3177 115.012 78.3177 114.486C78.3178 111.328 78.3175 108.169 78.3171 105.011C78.3171 104.519 78.032 104.12 77.584 103.996C77.4616 103.962 77.3328 103.94 77.2065 103.938C76.6962 103.929 76.1858 103.931 75.6753 103.928V101.615H79.7772C79.7772 101.526 79.777 101.461 79.7772 101.397C79.779 100.286 79.7808 99.175 79.7826 98.064H81.8057C81.8074 99.1545 81.809 100.245 81.8106 101.336C81.8108 101.399 81.8106 101.463 81.8106 101.52H83.4301V98.064H85.4838C85.4814 98.0964 85.4771 98.1288 85.4771 98.1611C85.4769 99.2736 85.4771 100.386 85.4778 101.498C85.4778 101.535 85.4849 101.571 85.4891 101.613C85.6017 101.626 85.7078 101.638 85.8137 101.651C86.5955 101.747 87.3674 101.891 88.1043 102.198C88.8835 102.523 89.5498 103.001 89.9823 103.788C90.291 104.35 90.4106 104.967 90.4327 105.608C90.4816 107.022 89.9942 108.134 88.804 108.844C88.7716 108.864 88.7421 108.889 88.7 108.919C88.9072 108.988 89.0974 109.044 89.2836 109.113C90.4233 109.538 91.2226 110.308 91.5027 111.599C91.5482 111.809 91.5774 112.023 91.6142 112.236V113.245C91.5834 113.464 91.5554 113.684 91.5214 113.902C91.2864 115.416 90.5294 116.51 89.2048 117.143C88.2721 117.589 87.2793 117.766 86.2711 117.869C86.0093 117.896 85.7472 117.917 85.4778 117.941C85.4778 118.186 85.4775 118.414 85.478 118.641C85.4798 119.601 85.4819 120.561 85.4838 121.52H83.4301V117.987H81.8106C81.8106 118.054 81.8108 118.119 81.8106 118.183C81.809 119.295 81.8074 120.408 81.8057 121.52H79.7826V117.931C79.7026 117.931 79.6473 117.931 79.5922 117.931C78.3526 117.926 77.1128 117.921 75.873 117.915C75.8071 117.915 75.7412 117.908 75.6753 117.904" fill="white"/>
<path d="M154.952 44.5918C155.789 56.4753 153.631 62.0858 144.389 66.0467C135.627 61.6957 133.359 56.9603 133.827 44.5918C137.31 44.5406 139.786 44.1443 144.389 41.9512C148.645 44.0084 150.702 44.5545 154.952 44.5918Z" stroke="white" stroke-width="2" stroke-linejoin="bevel"/>
<path d="M138.778 50.8633C138.778 50.8633 140.429 47.8926 144.72 47.8926C149.011 47.8926 150.331 50.8633 150.331 50.8633C150.331 50.8633 148.681 53.834 144.72 53.834C140.759 53.834 138.778 50.8633 138.778 50.8633ZM138.778 50.8633V53.999M138.778 53.999V57.1347C138.778 57.1347 140.429 59.7753 144.72 59.7753C149.011 59.7753 150.331 57.1347 150.331 57.1347M138.778 53.999C138.778 53.999 140.759 56.8046 144.72 56.8046C148.681 56.8046 150.331 54.164 150.331 54.164" stroke="white" stroke-width="2" stroke-linejoin="bevel"/>
</svg>
