<svg width="299" height="252" viewBox="0 0 299 252" fill="none" xmlns="http://www.w3.org/2000/svg">
<path d="M92.8838 145.559C83.7341 154.542 69.4544 168.562 69.4544 168.562L84.79 183.898C84.79 183.898 99.3293 169.878 108.645 160.895M92.8838 145.559C99.0391 151.548 102.49 154.906 108.645 160.895M92.8838 145.559C73.1481 118.287 75.1699 84.2524 97.9957 59.509C122.757 32.6677 165.043 28.0006 193.417 50.9888C221.752 73.9446 225.565 115.797 204.493 145.559C182.589 176.497 139.109 183.454 108.645 160.895M108.645 40.7651V2H297.359V209.457H108.645V166.858M34.0973 249.5L3 220.107L49.4329 174.1C55.5378 169.675 59.0513 169.123 65.6205 171.97L83.5121 188.584C85.1182 193.259 85.2001 195.617 83.5121 199.234L34.0973 249.5Z" stroke="white" stroke-width="3"/>
<path d="M279 28H174M279 56.629H223.119M279 81.629H233.441M279 103H236.644" stroke="white" stroke-width="3"/>
<path fill-rule="evenodd" clip-rule="evenodd" d="M145.996 89.8792V99.7761C146.079 99.7852 146.145 99.8003 146.211 99.7988C147.697 99.7666 149.185 99.7794 150.668 99.6841C151.923 99.6035 153.153 99.3165 154.305 98.7275C156.681 97.513 157.473 94.5084 155.989 92.2977C155.29 91.2565 154.274 90.7349 153.169 90.3952C150.823 89.6747 148.422 89.8414 145.996 89.8792M145.993 104.853V115.755C146.075 115.765 146.141 115.782 146.207 115.781C148.2 115.72 150.196 115.711 152.184 115.578C153.507 115.489 154.805 115.152 156.025 114.555C157.23 113.964 158.244 113.137 158.645 111.7C159.169 109.821 158.737 107.652 156.796 106.387C155.368 105.456 153.779 105.066 152.151 104.963C150.231 104.842 148.304 104.866 146.379 104.829C146.254 104.827 146.129 104.845 145.993 104.853M132 121.675C132 121.575 132 121.475 132 121.375C132.022 121.333 132.056 121.294 132.063 121.25C132.23 120.168 132.394 119.084 132.56 118.001C132.674 117.255 132.792 116.51 132.91 115.752C133.085 115.752 133.222 115.752 133.359 115.752C134.328 115.751 135.297 115.772 136.265 115.743C137.376 115.71 137.968 115.016 137.968 113.807C137.968 106.536 137.968 99.2639 137.967 91.9926C137.967 90.8604 137.323 89.9416 136.311 89.6558C136.035 89.5781 135.744 89.5282 135.459 89.5235C134.306 89.5033 133.153 89.5059 132 89.5V84.1751H141.265C141.265 83.9692 141.264 83.8211 141.265 83.673C141.269 81.1156 141.273 78.5578 141.277 76H145.846C145.85 78.5105 145.854 81.021 145.857 83.5316C145.858 83.6778 145.857 83.8244 145.857 83.9574H149.515V76H154.154C154.148 76.0748 154.139 76.1492 154.139 76.2236C154.138 78.7847 154.139 81.3454 154.14 83.9065C154.14 83.9904 154.156 84.0747 154.166 84.1696C154.42 84.2001 154.66 84.2272 154.899 84.2572C156.665 84.4782 158.408 84.8095 160.072 85.5173C161.832 86.2653 163.337 87.3659 164.314 89.1775C165.011 90.4705 165.281 91.891 165.331 93.3684C165.442 96.6236 164.341 99.1818 161.653 100.818C161.58 100.863 161.513 100.92 161.418 100.99C161.886 101.148 162.315 101.278 162.736 101.438C165.31 102.414 167.115 104.188 167.748 107.16C167.851 107.644 167.917 108.136 168 108.625V110.95C167.93 111.454 167.867 111.959 167.79 112.462C167.259 115.947 165.55 118.466 162.558 119.924C160.451 120.95 158.209 121.356 155.932 121.594C155.341 121.656 154.748 121.704 154.14 121.76C154.14 122.325 154.14 122.848 154.141 123.371C154.145 125.581 154.149 127.79 154.154 130H149.515V121.865H145.857C145.857 122.021 145.858 122.169 145.857 122.316C145.854 124.877 145.85 127.439 145.846 130H141.277V121.738C141.096 121.738 140.971 121.738 140.847 121.738C138.047 121.726 135.247 121.714 132.447 121.701C132.298 121.7 132.149 121.684 132 121.675" fill="white"/>
</svg>
