<svg width="220" height="219" viewBox="0 0 220 219" fill="none" xmlns="http://www.w3.org/2000/svg">
<path d="M76.296 121.525C70.9725 126.752 62.6643 134.909 62.6643 134.909L71.5868 143.831C71.5868 143.831 80.0461 135.674 85.4663 130.448M76.296 121.525C79.8772 125.01 81.8851 126.963 85.4663 130.448M76.296 121.525C64.8133 105.658 65.9897 85.8559 79.2701 71.4597C93.6766 55.843 118.279 53.1276 134.788 66.5025C151.274 79.8586 153.492 104.209 141.232 121.525C128.488 139.525 103.191 143.573 85.4663 130.448M85.4663 60.5542V38H195.263V158.702H85.4663V133.917M42.0929 182L24 164.898L51.0154 138.131C54.5674 135.556 56.6116 135.235 60.4337 136.892L70.8433 146.558C71.7777 149.278 71.8254 150.65 70.8433 152.754L42.0929 182Z" stroke="white" stroke-width="4"/>
<path d="M184.582 53.127H123.491M184.582 69.7838H152.069M184.582 84.3292H158.074M184.582 96.7632H159.938" stroke="white" stroke-width="4"/>
<path fill-rule="evenodd" clip-rule="evenodd" d="M107.197 89.1288V94.887C107.246 94.8924 107.284 94.9011 107.323 94.9002C108.187 94.8815 109.053 94.8889 109.915 94.8335C110.646 94.7866 111.361 94.6196 112.031 94.277C113.414 93.5703 113.875 91.8222 113.011 90.536C112.605 89.9302 112.014 89.6267 111.371 89.4291C110.006 89.0098 108.609 89.1069 107.197 89.1288M107.196 97.8411V104.184C107.243 104.19 107.282 104.2 107.32 104.199C108.48 104.164 109.641 104.158 110.798 104.081C111.567 104.029 112.322 103.833 113.032 103.485C113.734 103.142 114.324 102.661 114.557 101.824C114.862 100.731 114.61 99.4693 113.481 98.7333C112.65 98.1914 111.726 97.9647 110.778 97.905C109.661 97.8347 108.54 97.8483 107.42 97.827C107.348 97.8257 107.275 97.836 107.196 97.8411M99.0542 107.628C99.0542 107.57 99.0542 107.512 99.0542 107.454C99.0668 107.429 99.0869 107.407 99.0908 107.381C99.188 106.751 99.2833 106.121 99.38 105.491C99.4465 105.057 99.5148 104.623 99.5835 104.182C99.6854 104.182 99.7654 104.182 99.8451 104.182C100.409 104.181 100.973 104.194 101.536 104.177C102.182 104.158 102.527 103.754 102.527 103.05C102.527 98.8199 102.526 94.589 102.526 90.3585C102.526 89.6998 102.151 89.1652 101.562 88.9989C101.402 88.9537 101.232 88.9247 101.066 88.9219C100.396 88.9102 99.725 88.9117 99.0542 88.9082V85.8101H104.444C104.444 85.6903 104.444 85.6042 104.444 85.518C104.447 84.0301 104.449 82.5419 104.452 81.0537H107.11C107.112 82.5144 107.115 83.975 107.117 85.4357C107.117 85.5208 107.117 85.6061 107.117 85.6835H109.245V81.0537H111.944C111.94 81.0972 111.935 81.1405 111.935 81.1838C111.935 82.6739 111.935 84.1638 111.936 85.6538C111.936 85.7027 111.945 85.7517 111.951 85.8069C112.099 85.8246 112.238 85.8404 112.377 85.8579C113.405 85.9865 114.419 86.1793 115.387 86.591C116.411 87.0262 117.287 87.6666 117.855 88.7206C118.261 89.4729 118.418 90.2994 118.447 91.1589C118.511 93.0529 117.871 94.5413 116.307 95.4934C116.264 95.5192 116.225 95.5527 116.17 95.5934C116.442 95.6853 116.692 95.761 116.937 95.8537C118.435 96.4218 119.485 97.4541 119.853 99.183C119.913 99.4645 119.951 99.7513 120 100.036V101.388C119.959 101.681 119.922 101.975 119.878 102.268C119.569 104.295 118.574 105.761 116.833 106.609C115.608 107.206 114.303 107.443 112.978 107.581C112.634 107.617 112.29 107.645 111.936 107.678C111.936 108.006 111.935 108.311 111.936 108.615C111.938 109.901 111.941 111.186 111.944 112.472H109.245V107.739H107.117C107.117 107.829 107.117 107.915 107.117 108.001C107.115 109.491 107.112 110.982 107.11 112.472H104.452V107.665C104.346 107.665 104.274 107.665 104.201 107.665C102.572 107.658 100.943 107.651 99.314 107.643C99.2274 107.643 99.1408 107.633 99.0542 107.628" fill="white"/>
</svg>
